
<svg
	version="1.2"
	baseProfile="tiny"
	id="avatar-jo"
	xmlns="http://www.w3.org/2000/svg"
	xmlns:xlink="http://www.w3.org/1999/xlink"
	x="0px"
	y="0px"
	viewBox="0 0 60 220"
	xml:space="preserve"
>
	<polygon
		id="body"
		fill="#CCCCCC"
		points="50,180 50,140 10,140 10,220 40,220 40,180 "
	/>
	<linearGradient
		id="shadow-hat"
		gradientUnits="userSpaceOnUse"
		x1="30"
		y1="143.2966"
		x2="30"
		y2="150.7059"
	>
		<stop
			offset="0"
			style="stop-color:#B3B3B3"
		/>
		<stop
			offset="1"
			style="stop-color:#CCCCCC"
		/>
	</linearGradient>
	<polygon
		id="shadow-hat2"
		fill="url(#shadow-hat)"
		points="50,140 10,140 10,180 40,180"
	/>
	<polygon
		id="bowtie"
		fill="#333333"
		points="41,213 32,213 32,208 25.2,213 24.8,213 18,208 18,213 9,213 9,215 18,215 18,220 
		24.8,215 25.2,215 32,220 32,215 41,215
	"/>
	<polygon
		id="bowtie-accents"
		fill="#191919"
		points="28,212.2 25.2,214 25,214 22,212.2 22,216 25,214 25.2,214 28,216
	"/>
	<polygon
		id="beard"
		fill="#999999"
		points="40,187 40,185 30,185 30,201 40,201 40,195 32,195 32,187
	"/>
	<rect
		id="mouth"
		x="34"
		y="189"
		fill="#666666"
		width="5"
		height="2"
	/>
	<g
		id="freckles"
	>
		<circle
			id="freckle-6"
			fill="#666666"
			cx="24"
			cy="200"
			r="1"
		/>
		<circle
			id="freckle-5"
			fill="#999999"
			cx="19"
			cy="195"
			r="1"
		/>
		<circle
			id="freckle-4"
			fill="#B2B2B2"
			cx="24"
			cy="190"
			r="1"
		/>
		<circle
			id="freckle-3"
			fill="#B2B2B2"
			cx="19"
			cy="185"
			r="1"
		/>
		<circle
			id="freckle-2"
			fill="#B2B2B2"
			cx="24"
			cy="180"
			r="1"
		/>
		<circle
			id="freckle-1"
			fill="#E5E5E5"
			cx="19"
			cy="175"
			r="1"
		/>
	</g>
	<g
		id="right-eye"
	>
		<path
			id="right-eye_main"
			fill="#808080"
			d="M54,156c0,2.2-1.8,3-4,3s-4-0.8-4-3s1.8-3,4-3S54,153.8,54,156z"
		/>
		<path
			id="right-eye_pupil"
			fill="#4C4C4C"
			d="M51.3,156c0,0.7-0.6,1-1.3,1s-1.3-0.3-1.3-1s0.6-1,1.3-1S51.3,155.3,51.3,156z"
		/>
	</g>
	<g
		id="left-eye"
	>
		<path
			id="left-eye_shadow"
			fill="#B2B2B2"
			d="M31,161c-2.6,0-4.7-2-4.9-4.5c0,0.2-0.1,0.3-0.1,0.5c0,2.8,2.2,5,5,5s5-2.2,5-5
			c0-0.2,0-0.3-0.1-0.5C35.7,159,33.6,161,31,161z"
		/>
		<path
			id="left-eye_main"
			fill="#808080"
			d="M31,161c2.6,0,4.7-2,4.9-4.5c0-0.2,0.1-0.3,0.1-0.5c0-2.8-2.2-5-5-5s-5,2.2-5,5
			c0,0.2,0,0.3,0.1,0.5C26.3,159,28.4,161,31,161z"
		/>
		<circle
			id="left-eye_pupil"
			fill="#333333"
			cx="31"
			cy="156"
			r="2"
		/>
	</g>
	<g
		id="hat"
	>
		<polygon
			id="hat__main-color"
			fill="#333333"
			points="50,138 50,0 10,0 10,138 5,138 5,140 55,140 55,138"
		/>
		<rect
			id="hat__highlight"
			x="12"
			y="2"
			fill="#404040"
			width="1"
			height="134"
		/>
	</g>
	<polygon
		id="chat-bubble"
		fill="#F2F2F2"
		points="60,197 42,190 60,183"
	/>
</svg>
