
<svg
	version="1.2"
	baseProfile="tiny"
	id="avatar-ryan"
	xmlns="http://www.w3.org/2000/svg"
	xmlns:xlink="http://www.w3.org/1999/xlink"
	x="0px"
	y="0px"
	viewBox="0 0 60 220"
	xml:space="preserve"
>
	<polygon
		id="body"
		fill="#CCCCCC"
		points="11,180 11,140 51,140 51,220 21,220 21,180"
	/>
	<linearGradient
		id="shadow-hat1"
		gradientUnits="userSpaceOnUse"
		x1="31.0368"
		y1="143.7902"
		x2="31.2416"
		y2="164.8883"
	>
		<stop
			offset="0"
			style="stop-color:#999999"
		/>
		<stop
			offset="1"
			style="stop-color:#C7C7C7;stop-opacity:0"
		/>
	</linearGradient>

	<polygon
		id="shadow-hat"
		fill="url(#shadow-hat1)"
		points="11,140 21,180 51,180 51,140"
	/>
	<rect
		id="mouth"
		x="22"
		y="189"
		fill="#666666"
		width="5"
		height="2"
	/>
	<g id="left-eye">
		<path
			id="left-eye_main"
			fill="#808080"
			d="M8,156c0,2.2,0.8,4,3,4s3-1.8,3-4s-0.8-4-3-4S8,153.8,8,156z"
		/>
		<path
			id="left-eye_pupil"
			fill="#4C4C4C"
			d="M11,157.3c-0.7,0-1-0.6-1-1.3s0.3-1.3,1-1.3s1,0.6,1,1.3S11.7,157.3,11,157.3z"
		/>
	</g>
	<g id="right-eye">
		<circle
			id="right-eye_main"
			fill="#999999"
			cx="30"
			cy="156"
			r="5"
		/>
		<circle
			id="right-eye_pupil"
			fill="#333333"
			cx="30"
			cy="156"
			r="2"
		/>
	</g>
	<g id="monocle">
		<g id="monocle-shadow">
			<rect
				id="monocle-shadow_handle"
				x="37"
				y="156"
				fill="#B2B2B2"
				width="1"
				height="1"
			/>
			<path
				id="monocle-shadow_bottom"
				fill="#B2B2B2"
				d="M30,163c-3.7,0-6.7-2.9-7-6.5c0,0.2,0,0.3,0,0.5c0,3.9,3.1,7,7,7
				c2.8,0,5.2-1.6,6.3-4H40v-1h-3.7C35.2,161.4,32.8,163,30,163z"
			/>
			<path
				id="monocle-shadow_top"
				fill="#808080"
				d="M30,151c-2.8,0-5,2.2-5,5c0,0.2,0,0.3,0.1,0.5c0.3-2.5,2.4-4.5,4.9-4.5
				s4.7,2,4.9,4.5c0-0.2,0.1-0.3,0.1-0.5C35,153.2,32.8,151,30,151z"
			/>
			<rect
				id="monocle-shadow_chain"
				x="38"
				y="183"
				fill="#B2B2B2"
				width="2"
				height="2"
			/>
		</g>
		<rect
			id="monocle-chain"
			x="38" y="156"
			fill="#333333"
			width="2"
			height="27"
		/>
		<path
			id="monocle"
			fill="#333333"
			d="M36.7,154c-0.9-2.9-3.5-5-6.7-5c-3.9,0-7,3.1-7,7c0,0.2,0,0.3,0,0.5c0.3,3.6,3.3,6.5,7,6.5
			c2.8,0,5.2-1.6,6.3-4H40v-4v-1H36.7z M34.9,156.5c-0.3,2.5-2.4,4.5-4.9,4.5s-4.7-2-4.9-4.5c0-0.2-0.1-0.3-0.1-0.5c0-2.8,2.2-5,5-5
			s5,2.2,5,5C35,156.2,35,156.3,34.9,156.5z M38,157h-1v-1h1V157z"
		/>
		<circle
			id="monocle-glare"
			fill="#CCCCCC"
			cx="29"
			cy="154"
			r="1"
		/>
	</g>
	<g id="hat">
		<polygon
			id="hat-main"
			fill="#333333"
			points="51,138 39,20 41,15 43,18 41,18 46,23 48,10 36,0 11,6 11,138 6,138 6,140 56,140 
			56,138 
		"/>
			<g id="stars">
				<polygon
					id="star-bottom"
					fill="#CCCCCC"
					points="26.7,125.3 25,122 23.3,125.3 20,127 23.3,128.7 25,132 26.7,128.7 30,127"
				/>
				<polygon
					id="star-3"
					fill="#CCCCCC"
					points="40,110 39,108 38,110 36,111 38,112 39,114 40,112 42,111"
				/>
				<polygon
					id="star-2"
					fill="#CCCCCC"
					points="35.7,78.3 34,75 32.3,78.3 29,80 32.3,81.7 34,85 35.7,81.7 39,80"
				/>
				<polygon
					id="star-top"
					fill="#CCCCCC"
					points="36,11 35,9 34,11 32,12 34,13 35,15 36,13 38,12"
				/>
			</g>
	</g>
	<polygon
		id="chat-bubble"
		fill="#F2F2F2"
		points="0,183 19,190 0,197"
		/>
</svg>
