<?xml version="1.0" encoding="utf-8"?>
<!-- Generator: Adobe Illustrator 18.1.0, SVG Export Plug-In . SVG Version: 6.00 Build 0)  -->
<svg version="1.2" baseProfile="tiny" id="avatar-jo"
	 xmlns="http://www.w3.org/2000/svg" xmlns:xlink="http://www.w3.org/1999/xlink" x="0px" y="0px" viewBox="0 0 220 60"
	 xml:space="preserve">
<polygon id="body" fill="#CCCCCC" points="40,48 80,48 80,8 0,8 0,38 40,38 "/>
<image width="167" height="167" id="shadow-hat" xlink:href="5F7CD1C660AF9C50.png"  transform="matrix(0.24 0 0 0.24 40 8)">
</image>
<image width="21" height="126" id="shadow-bowtie_1_" xlink:href="5F7CD1C660AF9C5F.png"  transform="matrix(0.24 0 0 0.24 1.5 7.5)">
</image>
<polygon id="bowtie" fill="#333333" points="7,39 7,30 12.5,30 7,22.7 7,22.3 12.5,16 7,16 7,7 5,7 5,16 0.5,16 5,22.3 5,22.7 
	0.5,30 5,30 5,39 "/>
<polygon id="bowtie-accents" fill="#191919" points="8.3,26 6,22.7 6,22.5 8.3,20 4.5,20 6,22.5 6,22.7 4.5,26 "/>
<polygon id="beard" fill="#999999" points="33,38 35,38 35,28 19,28 19,38 25,38 25,30 33,30 "/>
<rect id="mouth" x="29.5" y="31.5" fill="#666666" width="2" height="5"/>
<g id="freckles">
	<circle id="freckle-darkest" fill="#666666" cx="20.5" cy="21.5" r="1"/>
	<circle id="freckle-5" fill="#999999" cx="25.5" cy="16.5" r="1"/>
	<circle id="freckle-4" fill="#B2B2B2" cx="30.5" cy="21.5" r="1"/>
	<circle id="freckle-3" fill="#B2B2B2" cx="35.5" cy="16.5" r="1"/>
	<circle id="freckle-2" fill="#B2B2B2" cx="40.5" cy="21.5" r="1"/>
	<circle id="freckle-lightest" fill="#E5E5E5" cx="45.5" cy="16.5" r="1"/>
</g>
<g id="right-eye">
	<path id="right-eye_main" fill="#808080" d="M64.5,51.5c-2.2,0-3-1.8-3-4s0.8-4,3-4c2.2,0,3,1.8,3,4S66.7,51.5,64.5,51.5z"/>
	<path id="right-eye_pupil" fill="#4C4C4C" d="M64.5,48.8c-0.7,0-1-0.6-1-1.3s0.3-1.3,1-1.3s1,0.6,1,1.3S65.2,48.8,64.5,48.8z"/>
</g>
<g id="left-eye">
	<path id="left-eye_shadow" fill="#B2B2B2" d="M59.5,28.5c0-2.6,2-4.7,4.5-4.9c-0.2,0-0.3-0.1-0.5-0.1c-2.8,0-5,2.2-5,5s2.2,5,5,5
		c0.2,0,0.3,0,0.5-0.1C61.5,33.2,59.5,31.1,59.5,28.5z"/>
	<path id="left-eye_main" fill="#808080" d="M59.5,28.5c0,2.6,2,4.7,4.5,4.9c0.2,0,0.3,0.1,0.5,0.1c2.8,0,5-2.2,5-5s-2.2-5-5-5
		c-0.2,0-0.3,0-0.5,0.1C61.5,23.8,59.5,25.9,59.5,28.5z"/>
	<circle id="left-eye_pupil" fill="#333333" cx="64.5" cy="28.5" r="2"/>
</g>
<g id="hat_1_">
	<polygon id="hat__main-color" fill="#333333" points="82,48 220,48 220,8 82,8 82,3 80,3 80,53 82,53 	"/>
	<rect id="hat__highlight" x="84.5" y="9.5" fill="#404040" width="134" height="1"/>
</g>
<polygon id="chat-bubble" fill="#F2F2F2" points="23.5,57.5 30.5,39.5 37.5,57.5 "/>
</svg>
