<?xml version="1.0" encoding="utf-8"?>
<!DOCTYPE svg PUBLIC "-//W3C//DTD SVG 1.1//EN" "http://www.w3.org/Graphics/SVG/1.1/DTD/svg11.dtd">
<svg version="1.1" id="avatar-jo" xmlns="http://www.w3.org/2000/svg" xmlns:xlink="http://www.w3.org/1999/xlink" x="0px" y="0px"
	 viewBox="0 0 60 220" enable-background="new 0 0 60 220" xml:space="preserve">
<animate
xlink:href="#mouth"
attributeName="height"
from="2"
to="4" 
dur=".5s"
begin=".3s"
repeatCount="indefinite"
fill="restart"
/>
<polygon id="body" fill="#C6C3B9" points="50,180 50,140 10,140 10,220 40,220 40,180 "/>
<linearGradient id="shadow-hat_1_" gradientUnits="userSpaceOnUse" x1="28.0368" y1="143.7902" x2="28.2416" y2="164.8883" gradientTransform="matrix(-1 0 0 1 58 0)">
	<stop  offset="0" style="stop-color:#8C8873;stop-opacity:0.9"/>
	<stop  offset="1" style="stop-color:#C6C3B9;stop-opacity:0"/>
</linearGradient>
<polygon id="shadow-hat" fill="url(#shadow-hat_1_)" points="50,140 40,180 10,180 10,140 "/>
<polygon id="bowtie_shadow" fill="#AFAC9D" points="40,214 10,214 10,215 18,215 18,220 24.806,215 25.194,215 32,220 32,215 
	40,215 "/>
<polygon id="bowtie" fill="#38362E" points="41,212 32,212 32,207 25.194,212 24.806,212 18,207 18,212 9,212 9,214 18,214 18,219 
	24.806,214 25.194,214 32,219 32,214 41,214 "/>
<polygon id="beard" fill="#BD350F" points="40,187 40,185 30,185 30,201 40,201 40,195 32,195 32,187 "/>
<rect id="mouth" x="34" y="189" fill="#706D5C" width="5" height="2"/>
<g id="freckles">
	<circle id="freckle-darkest" fill="#AFAC9D" cx="24" cy="200" r="1"/>
	<circle id="freckle-5" fill="#AFAC9D" cx="19" cy="195" r="1"/>
	<circle id="freckle-4" fill="#AFAC9D" cx="24" cy="190" r="1"/>
	<circle id="freckle-3" fill="#AFAC9D" cx="19" cy="185" r="1"/>
	<circle id="freckle-2" fill="#AFAC9D" cx="24" cy="180" r="1"/>
	<circle id="freckle-lightest" fill="#AFAC9D" cx="19" cy="175" r="1"/>
</g>
<g id="right-eye">
	<path id="right-eye_main" fill="#8596AD" d="M54,156c0,2.209-1.791,3-4,3s-4-0.791-4-3s1.791-3,4-3S54,153.791,54,156z"/>
	<path id="right-eye_pupil" fill="#29313D" d="M51.333,156c0,0.736-0.597,1-1.333,1s-1.333-0.264-1.333-1s0.597-1,1.333-1
		S51.333,155.264,51.333,156z"/>
</g>
<g id="left-eye">
	<path id="left-eye_shadow" fill="#AFAC9D" d="M31,161c-2.59,0-4.695-1.977-4.95-4.5c-0.017,0.167-0.05,0.329-0.05,0.5
		c0,2.761,2.239,5,5,5s5-2.239,5-5c0-0.171-0.034-0.333-0.05-0.5C35.695,159.023,33.59,161,31,161z"/>
	<path id="left-eye_main" fill="#8596AD" d="M31,161c2.59,0,4.695-1.977,4.95-4.5c0.017-0.167,0.05-0.329,0.05-0.5
		c0-2.761-2.239-5-5-5s-5,2.239-5,5c0,0.171,0.034,0.333,0.05,0.5C26.305,159.023,28.41,161,31,161z"/>
	<circle id="left-eye_pupil" fill="#29313D" cx="31" cy="156" r="2"/>
</g>
<g id="hat_1_">
	<polygon id="hat_main-color" fill="#333333" points="50,138 50,0 10,0 10,138 5,138 5,140 55,140 55,138 	"/>
	<rect id="hat_highlight" x="12" y="2" fill="#545245" width="1" height="134"/>
</g>
<path id="chat-bubble" fill="#C6C3B9" d="M60,197c-10.095,0-18-7-18-7s18,1.013,18-7S60,194.686,60,197z"/>
</svg>
