<?xml version="1.0" encoding="utf-8"?>
<!-- Generator: Adobe Illustrator 18.1.0, SVG Export Plug-In . SVG Version: 6.00 Build 0)  -->
<!DOCTYPE svg PUBLIC "-//W3C//DTD SVG 1.1//EN" "http://www.w3.org/Graphics/SVG/1.1/DTD/svg11.dtd">
<svg version="1.1" id="avatar-ryan" xmlns="http://www.w3.org/2000/svg" xmlns:xlink="http://www.w3.org/1999/xlink" x="0px"
	 y="0px" viewBox="0 0 60 220" enable-background="new 0 0 60 220" xml:space="preserve">
<animate
xlink:href="#mouth"
attributeName="height"
from="2"
to="4" 
dur=".3s"
begin="0s"
repeatCount="indefinite"
fill="restart"
/>
<polygon id="body_1_" fill="#C6C3B9" points="10,180 10,140 50,140 50,220 20,220 20,180 "/>
<linearGradient id="shadow-hat_1_" gradientUnits="userSpaceOnUse" x1="30.0368" y1="143.7902" x2="30.2416" y2="164.8883">
	<stop  offset="0" style="stop-color:#8C8873;stop-opacity:0.9"/>
	<stop  offset="1" style="stop-color:#C6C3B9;stop-opacity:0"/>
</linearGradient>
<polygon id="shadow-hat" fill="url(#shadow-hat_1_)" points="10,140 20,180 50,180 50,140 "/>
<path id="chat-bubble_1_" fill="#C6C3B9" d="M0,183c0,6.237,19,7,19,7s-5.974,6-19,6C0,192.745,0,176.763,0,183z"/>
<rect id="mouth" x="21" y="189" fill="#8C8873" width="5" height="2"/>
<g id="eyes">
	<g id="left-eye_1_">
		<path id="left-eye_cornea" fill="#8C8873" d="M7,156c0,2.209,0.791,4,3,4s3-1.791,3-4s-0.791-4-3-4S7,153.791,7,156z"/>
		<path id="left-eye-pupil" fill="#38362E" d="M10,157.333c-0.736,0-1-0.597-1-1.333s0.264-1.333,1-1.333s1,0.597,1,1.333
			S10.736,157.333,10,157.333z"/>
	</g>
	<g id="right-eye_1_">
		<circle id="right-eye_cornea" fill="#8C8873" cx="29" cy="156" r="5"/>
		<circle id="right-eye_pupil" fill="#545245" cx="29" cy="156" r="2"/>
	</g>
</g>
<g id="monocle_1_">
	<g id="monocle-shadow">
		<rect id="monocle-shadow_handle" x="36" y="156" fill="#AFAC9D" width="1" height="1"/>
		<rect id="monocle-shadow_chain" x="37" y="183" fill="#AFAC9D" width="2" height="2"/>
		<path id="monocle-shadow_bottom" fill="#AFAC9D" d="M29,163c-3.691,0-6.716-2.874-6.975-6.5C22.014,156.666,22,156.831,22,157
			c0,3.86,3.14,7,7,7c2.785,0,5.189-1.639,6.315-4H39v-1h-3.685C34.189,161.361,31.785,163,29,163z"/>
		<path id="monocle-shadow_top" fill="#706D5C" d="M29,151c-2.761,0-5,2.239-5,5c0,0.171,0.034,0.333,0.05,0.5
			c0.254-2.523,2.359-4.5,4.95-4.5s4.695,1.977,4.95,4.5c0.017-0.167,0.05-0.329,0.05-0.5C34,153.239,31.761,151,29,151z"/>
	</g>
	<rect id="monocle-chain" x="37" y="157" fill="#BD350F" width="2" height="26"/>
	<path id="monocle-ring" fill="#BD350F" d="M35.705,154c-0.863-2.888-3.541-5-6.705-5c-3.86,0-7,3.14-7,7
		c0,0.169,0.014,0.334,0.025,0.5c0.258,3.626,3.284,6.5,6.975,6.5c2.785,0,5.189-1.639,6.315-4H39v-4v-1H35.705z M33.95,156.5
		c-0.254,2.523-2.359,4.5-4.95,4.5s-4.695-1.977-4.95-4.5c-0.017-0.167-0.05-0.329-0.05-0.5c0-2.761,2.239-5,5-5s5,2.239,5,5
		C34,156.171,33.966,156.333,33.95,156.5z M37,157h-1v-1h1V157z"/>
	<circle id="monocle-glare" fill="#C6C3B9" cx="28" cy="154" r="1"/>
</g>
<g id="hat">
	<polygon id="hat-main" fill="#38362E" points="50,138 38,20 40,15 42,18 40,18 45,23 47,10 35,0 10,6 10,138 5,138 5,140 55,140 
		55,138 	"/>
	<g id="stars">
		<polygon id="star-bottom" fill="#D43B11" points="25.667,125.333 24,122 22.333,125.333 19,127 22.333,128.667 24,132 
			25.667,128.667 29,127 		"/>
		<polygon id="star-3" fill="#D43B11" points="39,110 38,108 37,110 35,111 37,112 38,114 39,112 41,111 		"/>
		<polygon id="star-2" fill="#D43B11" points="34.667,78.333 33,75 31.333,78.333 28,80 31.333,81.667 33,85 34.667,81.667 38,80 		
			"/>
		<polygon id="star-top" fill="#D43B11" points="35,11 34,9 33,11 31,12 33,13 34,15 35,13 37,12 		"/>
	</g>
</g>
</svg>
