<?xml version="1.0" encoding="utf-8"?>
<!-- Generator: Adobe Illustrator 18.1.1, SVG Export Plug-In . SVG Version: 6.00 Build 0)  -->
<!DOCTYPE svg PUBLIC "-//W3C//DTD SVG 1.1//EN" "http://www.w3.org/Graphics/SVG/1.1/DTD/svg11.dtd">
<svg version="1.1" xmlns="http://www.w3.org/2000/svg" xmlns:xlink="http://www.w3.org/1999/xlink" x="0px" y="0px"
	 viewBox="0 0 512 512" enable-background="new 0 0 512 512" xml:space="preserve">
<g id="ryan-tub" display="none">
	<polygon id="body_1_" display="inline" fill="#CCCCCC" points="120,151 120,110 80,110 80,180 110,180 110,151 	"/>
	
		<linearGradient id="shadow-hat_3_" gradientUnits="userSpaceOnUse" x1="95.0368" y1="113.7902" x2="95.2416" y2="134.8883" gradientTransform="matrix(-1 0 0 1 195 0)">
		<stop  offset="0" style="stop-color:#999999"/>
		<stop  offset="1" style="stop-color:#C7C7C7;stop-opacity:0"/>
	</linearGradient>
	<polygon id="shadow-hat" display="inline" fill="url(#shadow-hat_3_)" points="120,110 110,150 80,150 80,110 	"/>
	<rect id="mouth_1_" x="104" y="159" display="inline" fill="#666666" width="5" height="2"/>
	<g id="left-eye_1_" display="inline">
		<path id="left-eye_main_1_" fill="#808080" d="M123,126c0,2.209-0.791,4-3,4s-3-1.791-3-4s0.791-4,3-4S123,123.791,123,126z"/>
		<path id="left-eye_pupil_1_" fill="#4C4C4C" d="M120,127.333c0.736,0,1-0.597,1-1.333s-0.264-1.333-1-1.333s-1,0.597-1,1.333
			S119.264,127.333,120,127.333z"/>
	</g>
	<g id="right-eye_1_" display="inline">
		<circle id="right-eye_main_2_" fill="#999999" cx="101" cy="126" r="5"/>
		<circle id="right-eye_pupil_1_" fill="#333333" cx="101" cy="126" r="2"/>
	</g>
	<g id="Monocle-shadow" display="inline">
		<rect id="monocle-shadow_handle" x="93" y="126" fill="#B2B2B2" width="1" height="1"/>
		<path id="monocle-shadow_bottom" fill="#B2B2B2" d="M101,133c3.691,0,6.716-2.874,6.975-6.5c0.012,0.166,0.025,0.331,0.025,0.5
			c0,3.86-3.14,7-7,7c-2.785,0-5.189-2-6.315-4H91v-1h3.685C95.811,131,98.215,133,101,133z"/>
		<path id="monocle-shadow_top" fill="#808080" d="M101,121c2.761,0,5,2.239,5,5c0,0.171-0.034,0.333-0.05,0.5
			c-0.254-2.523-2.359-4.5-4.95-4.5s-4.695,1.977-4.95,4.5c-0.017-0.167-0.05-0.329-0.05-0.5C96,123.239,98.239,121,101,121z"/>
		<rect id="monocle-shadow_chain" x="91" y="153" fill="#B2B2B2" width="2" height="2"/>
	</g>
	<rect id="monocle-chain" x="91" y="126" display="inline" fill="#333333" width="2" height="27"/>
	<path id="monocle" display="inline" fill="#333333" d="M91,124v1v4h3.685c1.126,2,3.53,4,6.315,4c3.691,0,6.716-2.874,6.975-6.5
		c0.012-0.166,0.025-0.331,0.025-0.5c0-3.86-3.14-7-7-7c-3.165,0-5.842,2-6.705,5H91z M96,126c0-2.761,2.239-5,5-5s5,2.239,5,5
		c0,0.171-0.034,0.333-0.05,0.5c-0.254,2.523-2.359,4.5-4.95,4.5s-4.695-1.977-4.95-4.5C96.034,126.333,96,126.171,96,126z M93,126
		h1v1h-1V126z"/>
	<circle id="monocle-glare" display="inline" fill="#CCCCCC" cx="102" cy="124" r="1"/>
	<polygon id="chat-bubble_1_" display="inline" fill="#F2F2F2" points="130,153 112,160 130,167 	"/>
	<g id="arm_1_" display="inline">
		<rect id="arm-base_1_" x="233" y="646" fill="#CCCCCC" width="8" height="70"/>
		<g id="hand_1_">
			<polygon id="hand-base_1_" fill="#CCCCCC" points="230,635 231,635 231,633 242,633 241,646 233,646 230,641 			"/>
			<rect id="finger-pinkie_1_" x="240" y="627" fill="#CCCCCC" width="2" height="6"/>
			<rect id="finger-ring_1_" x="237" y="625" fill="#CCCCCC" width="2" height="8"/>
			<rect id="finger-middle_1_" x="234" y="624" fill="#CCCCCC" width="2" height="9"/>
			<rect id="finger-pointer_1_" x="231" y="626" fill="#CCCCCC" width="2" height="7"/>
			<polygon id="thumb_1_" fill="#CCCCCC" points="229,639.889 230,641 230,631 228,631 			"/>
		</g>
	</g>
	<g id="shower-cap" display="inline">
		<path id="cap" fill="#333333" d="M121,101.402C121,95.131,115.869,90,109.598,90H90.402C84.131,90,79,95.131,79,101.402v3.197
			c0,1.406,0.27,2.542,0.741,3.476C79.27,108.646,79,109.302,79,110c0,2.209,2.686,4,6,4c2.088,0,3.925-0.712,5-1.791
			c1.075,1.079,2.912,1.791,5,1.791s3.925-0.712,5-1.791c1.075,1.079,2.912,1.791,5,1.791s3.925-0.712,5-1.791
			c1.075,1.079,2.912,1.791,5,1.791c3.314,0,6-1.791,6-4c0-0.698-0.27-1.354-0.741-1.925c0.471-0.935,0.741-2.07,0.741-3.476
			V101.402z"/>
		<g id="stars">
			<polygon id="star-bog" fill="#CCCCCC" points="109.333,98.333 111,95 112.667,98.333 116,100 112.667,101.667 111,105 
				109.333,101.667 106,100 			"/>
			<polygon id="star-small" fill="#CCCCCC" points="88,97 89,95 90,97 92,98 90,99 89,101 88,99 86,98 			"/>
		</g>
	</g>
	<polygon display="inline" fill="#CCCCCC" points="330,230 80,230 50,180 360,180 	"/>
	<rect x="60" y="60" display="inline" fill="#CCCCCC" width="10" height="120"/>
	<polygon display="inline" fill="#CCCCCC" points="70,70 101,70 97,60 70,60 	"/>
	<polygon display="inline" fill="#CCCCCC" points="120,80 75,80 80,60 100,60 	"/>
</g>
<g id="avatar-jo" display="none">
	<polygon id="body_2_" display="inline" fill="#CCCCCC" points="1120,376 1120,336 1080,336 1080,506 1110,506 1110,376 	"/>
	<linearGradient id="shadow-hat_4_" gradientUnits="userSpaceOnUse" x1="1100" y1="339.2966" x2="1100" y2="346.7059">
		<stop  offset="0" style="stop-color:#B3B3B3"/>
		<stop  offset="1" style="stop-color:#CCCCCC"/>
	</linearGradient>
	<polygon id="shadow-hat_1_" display="inline" fill="url(#shadow-hat_4_)" points="1120,336 1080,336 1080,376 1110,376 	"/>
	<polygon id="bowtie_1_" display="inline" fill="#333333" points="1111,408 1105,408 1105,402 1095.194,409 1094.806,409 1085,402 
		1085,408 1079,408 1079,412 1085,412 1085,418 1094.806,411 1095.194,411 1105,418 1105,412 1111,412 	"/>
	<g id="freckles_1_" display="inline">
		<circle id="freckle-darkest_1_" fill="#666666" cx="1094" cy="396" r="1"/>
		<circle id="freckle-5_1_" fill="#999999" cx="1089" cy="391" r="1"/>
		<circle id="freckle-4_1_" fill="#B2B2B2" cx="1094" cy="386" r="1"/>
		<circle id="freckle-3_1_" fill="#B2B2B2" cx="1089" cy="381" r="1"/>
		<circle id="freckle-2_1_" fill="#B2B2B2" cx="1094" cy="376" r="1"/>
		<circle id="freckle-lightest_1_" fill="#E5E5E5" cx="1089" cy="371" r="1"/>
	</g>
	<g id="right-eye_2_" display="inline">
		<path id="right-eye_main_1_" fill="#808080" d="M1124,352c0,2.209-1.791,3-4,3s-4-0.791-4-3s1.791-3,4-3S1124,349.791,1124,352z"
			/>
		<path id="right-eye_pupil_2_" fill="#4C4C4C" d="M1121.333,352c0,0.736-0.597,1-1.333,1s-1.333-0.264-1.333-1s0.597-1,1.333-1
			S1121.333,351.264,1121.333,352z"/>
	</g>
	<g id="right-eye_4_" display="inline">
		<path id="right-eye_main_3_" fill="#808080" d="M1106,352c0,2.761-2.239,3.75-5,3.75s-5-0.989-5-3.75s2.239-3.75,5-3.75
			S1106,349.239,1106,352z"/>
		<path id="right-eye_pupil_3_" fill="#4C4C4C" d="M1102.667,352c0,0.92-0.746,1.25-1.667,1.25s-1.667-0.33-1.667-1.25
			s0.746-1.25,1.667-1.25S1102.667,351.08,1102.667,352z"/>
	</g>
	<g id="hat_2_" display="inline">
		<polygon id="hat__main-color_1_" fill="#333333" points="1120,334 1120,246 1080,246 1080,334 1075,334 1075,336 1125,336 
			1125,334 		"/>
		<rect id="hat__highlight_1_" x="1082" y="248" fill="#404040" width="1" height="84"/>
	</g>
	<g id="arm_5_" display="inline">
		<rect id="arm-base_7_" x="1115" y="546" fill="#CCCCCC" width="8" height="70"/>
		<g id="hand_7_">
			<polygon id="hand-base_7_" fill="#CCCCCC" points="1126,535 1125,535 1125,533 1114,533 1115,546 1123,546 1126,541 			"/>
			<rect id="finger-pinkie_7_" x="1114" y="527" fill="#CCCCCC" width="2" height="6"/>
			<rect id="finger-ring_7_" x="1117" y="525" fill="#CCCCCC" width="2" height="8"/>
			<rect id="finger-middle_7_" x="1120" y="524" fill="#CCCCCC" width="2" height="9"/>
			<rect id="finger-pointer_7_" x="1123" y="526" fill="#CCCCCC" width="2" height="7"/>
			<polygon id="thumb_7_" fill="#CCCCCC" points="1127,539.889 1126,541 1126,531 1128,531 			"/>
		</g>
	</g>
	<g id="arm_4_" display="inline">
		<rect id="arm-base_6_" x="1181" y="546" fill="#CCCCCC" width="8" height="70"/>
		<g id="hand_6_">
			<polygon id="hand-base_6_" fill="#CCCCCC" points="1192,535 1191,535 1191,533 1180,533 1181,546 1189,546 1192,541 			"/>
			<rect id="finger-pinkie_6_" x="1180" y="527" fill="#CCCCCC" width="2" height="6"/>
			<rect id="finger-ring_6_" x="1183" y="525" fill="#CCCCCC" width="2" height="8"/>
			<rect id="finger-middle_6_" x="1186" y="524" fill="#CCCCCC" width="2" height="9"/>
			<rect id="finger-pointer_6_" x="1189" y="526" fill="#CCCCCC" width="2" height="7"/>
			<polygon id="thumb_6_" fill="#CCCCCC" points="1193,539.889 1192,541 1192,531 1194,531 			"/>
		</g>
	</g>
	<g id="arm-pointing_1_" display="inline">
		<rect id="arm-base_5_" x="1096" y="546" fill="#CCCCCC" width="8" height="70"/>
		<g id="hand_5_">
			<polygon id="hand-base_5_" fill="#CCCCCC" points="1107,536 1106,535 1106,533 1095,533 1096,546 1104,546 1107,541 			"/>
			<rect id="finger-pinkie_5_" x="1095" y="532" fill="#CCCCCC" width="2" height="1"/>
			<rect id="finger-ring_5_" x="1098" y="531" fill="#CCCCCC" width="2" height="2"/>
			<rect id="finger-middle_5_" x="1101" y="530" fill="#CCCCCC" width="2" height="3"/>
			<rect id="finger-pointer_5_" x="1104" y="525" fill="#CCCCCC" width="2" height="8"/>
			<polygon id="thumb_5_" fill="#CCCCCC" points="1107,541 1107,541 1106,535 1108,536 			"/>
		</g>
	</g>
	<g id="Iq3Hz1.tif_1_" display="inline">
		
			<image overflow="visible" width="360" height="450" id="Layer_0_2_" xlink:href="D68ED7EFCAC4DF95.png"  transform="matrix(0.2806 0 0 0.2806 1244 478.75)">
		</image>
	</g>
	<path display="inline" fill="#999999" d="M1099,375.942L1099,375.942c0-0.52,0.422-0.942,0.942-0.942h1.065
		c0.367,0,0.55-0.443,0.291-0.703l-0.431-0.431c-0.985-0.985-2.614-0.869-3.45,0.245l0,0c-0.919,1.226-1.416,2.717-1.416,4.249l0,0
		c0,2.562,2.438,4.64,5,4.64v12c0,1.105,0.895,2,2,2h7v-6h-7c-0.552,0-1-0.448-1-1v-7h8v-3.841c0-1.588-2.448-2.491-4-2.159
		c-2.468,0.528-4.761,0.798-6.003,0.355l0,0C1099.399,377.142,1099,376.576,1099,375.942z"/>
	<g display="inline">
		<path fill="#4C4C4C" d="M1109,384h-6v4c0,0.19,0.035,0.371,0.085,0.546c0.31-0.885,1.494-1.546,2.915-1.546
			s2.605,0.661,2.915,1.546c0.05-0.174,0.085-0.355,0.085-0.546V384z"/>
		<path fill="#666666" d="M1106,387c-1.422,0-2.605,0.661-2.915,1.546c0.239,0.838,1.001,1.454,1.915,1.454h2
			c0.914,0,1.676-0.617,1.915-1.454C1108.605,387.661,1107.422,387,1106,387z"/>
	</g>
	<path display="inline" fill="#4C4C4C" d="M1081,336v6c0,0.552-0.448,1-1,1l0,0c-0.552,0-1-0.438-1-1c0-1-0.016-2-1-2s-1,1-1,2
		c0,1.609,1.343,3,3,3l0,0c1.657,0,3-1.343,3-3v-6H1081z"/>
	<path display="inline" fill="#333333" d="M1089.667,336v4c0,0.368-0.298,0.667-0.667,0.667l0,0c-0.368,0-0.667-0.292-0.667-0.667
		c0-0.667-0.01-1.333-0.667-1.333S1087,339.333,1087,340c0,1.073,0.895,2,2,2l0,0c1.105,0,2-0.895,2-2v-4H1089.667z"/>
</g>
<g id="Trees_Background" display="none">
	<rect x="680" y="100" fill="#333333" width="200" height="200"/>
	<g display="inline">
		<g>
			<polygon fill="#666666" points="800,270 770,300 760,300 790,270 			"/>
			<rect x="720" y="100" fill="#666666" width="20" height="200"/>
			<polygon fill="#666666" points="720,240 680,200 680,190 720,230 			"/>
			<polygon fill="#666666" points="760,100 740,120 740,130 770,100 			"/>
			<polygon fill="#666666" points="740,190 800,130 810,130 740,200 			"/>
			<polygon fill="#666666" points="880,200 840,160 840,150 880,190 			"/>
		</g>
	</g>
	<g display="inline">
		<rect x="760" y="100" fill="#4C4C4C" width="20" height="200"/>
		<polygon fill="#4C4C4C" points="760,240 700,180 710,180 760,230 		"/>
		<polygon fill="#4C4C4C" points="760,130 730,100 740,100 760,120 		"/>
		<polygon fill="#4C4C4C" points="700,260 740,300 730,300 690,260 		"/>
	</g>
	<g display="inline">
		<polygon fill="#333333" points="810,210 740,140 750,140 810,200 		"/>
		<rect x="810" y="100" fill="#333333" width="20" height="200"/>
		<polygon fill="#333333" points="870,210 830,250 830,240 860,210 		"/>
	</g>
	<polygon display="inline" fill="#4C4C4C" points="800,290 810,300 800,300 790,290 	"/>
	<g display="inline">
		<rect x="850" y="100" fill="#0D0D0D" width="20" height="200"/>
		<polygon fill="#0D0D0D" points="850,290 790,230 800,230 850,280 		"/>
		<polygon fill="#0D0D0D" points="800,100 850,150 850,140 810,100 		"/>
		<polygon fill="#0D0D0D" points="880,110 870,120 870,110 880,100 		"/>
		<polygon fill="#0D0D0D" points="720,260 680,300 680,290 720,250 		"/>
	</g>
	<g display="inline">
		<rect x="680" y="100" fill="#808080" width="20" height="200"/>
		<rect x="870" y="100" fill="#808080" width="10" height="200"/>
		<polygon fill="#808080" points="700,100 710,100 700,110 		"/>
		<polygon fill="#808080" points="710,300 790,220 780,220 700,300 		"/>
		<polygon fill="#808080" points="720,150 700,170 700,160 720,140 		"/>
		<polygon fill="#808080" points="870,250 830,210 830,200 870,240 		"/>
		<polygon fill="#808080" points="870,300 810,240 820,240 870,290 		"/>
	</g>
	<g id="trees_flipped" display="inline">
		<g>
			<g>
				<polygon fill="#666666" points="760,270 790,300 800,300 770,270 				"/>
				<rect x="820" y="100" fill="#666666" width="20" height="200"/>
				<polygon fill="#666666" points="840,240 870,210 870,200 840,230 				"/>
				<polygon fill="#666666" points="800,100 820,120 820,130 790,100 				"/>
				<polygon fill="#666666" points="820,190 760,130 750,130 820,200 				"/>
				<polygon fill="#666666" points="680,200 710,170 710,160 680,190 				"/>
			</g>
		</g>
		<g>
			<rect x="830" y="100" fill="#4C4C4C" width="20" height="200"/>
			<polygon fill="#4C4C4C" points="850,240 910,180 900,180 850,230 			"/>
			<polygon fill="#4C4C4C" points="850,130 880,100 870,100 850,120 			"/>
			<polygon fill="#4C4C4C" points="910,260 870,300 880,300 920,260 			"/>
		</g>
		<g>
			<polygon fill="#333333" points="750,210 820,140 810,140 750,200 			"/>
			<rect x="730" y="100" fill="#333333" width="20" height="200"/>
			<polygon fill="#333333" points="690,210 730,250 730,240 700,210 			"/>
		</g>
		<g>
			<rect x="690" y="100" fill="#0D0D0D" width="20" height="200"/>
			<polygon fill="#0D0D0D" points="710,290 770,230 760,230 710,280 			"/>
			<polygon fill="#0D0D0D" points="760,100 710,150 710,140 750,100 			"/>
			<polygon fill="#0D0D0D" points="680,110 690,120 690,110 680,100 			"/>
			<polygon fill="#0D0D0D" points="840,260 880,300 880,290 840,250 			"/>
		</g>
	</g>
</g>
<g id="Layer_5" display="none">
</g>
<g id="Guides" display="none">
</g>
<g id="selector" display="none">
	<path id="selector-outside" display="inline" fill="#333333" d="M138.344,573.805l0.191-1.34l-1.34,0.191
		c-1.328-0.874-3.062-0.874-4.39,0l-1.34-0.191l0.191,1.34c-0.874,1.328-0.874,3.062,0,4.39l-0.191,1.34l1.34-0.191
		c1.328,0.874,3.062,0.874,4.39,0l1.34,0.191l-0.191-1.34C139.218,576.867,139.218,575.133,138.344,573.805z M137.121,578.121
		c-1.172,1.172-3.071,1.172-4.243,0c-1.172-1.172-1.172-3.071,0-4.243s3.071-1.172,4.243,0S138.293,576.95,137.121,578.121z"/>
	<circle id="selector-inside" display="inline" fill="#333333" cx="135" cy="576" r="2"/>
</g>
<g id="Scene_-_SPACE" display="none">
	<rect id="background" fill="#3D4A5C" width="300" height="200"/>
	
		<linearGradient id="SVGID_1_" gradientUnits="userSpaceOnUse" x1="117.0797" y1="40.136" x2="198.0797" y2="40.136" gradientTransform="matrix(0.7071 -0.7071 0.7071 0.7071 19.6939 140.5452)">
		<stop  offset="0" style="stop-color:#B2B2B2;stop-opacity:0.4"/>
		<stop  offset="1" style="stop-color:#B2B2B2;stop-opacity:0"/>
	</linearGradient>
	<path display="inline" fill="url(#SVGID_1_)" d="M130.61,71.541c-4.465,4.465-3.848,10.496,0.253,14.597
		c4.1,4.101,10.132,4.717,14.597,0.253c1.276-1.276,50.104-50.104,50.104-50.104l-14.849-14.849
		C180.713,21.438,131.886,70.265,130.61,71.541z"/>
	<g id="flexboxes" display="inline">
	</g>
	<path display="inline" fill="#666666" d="M159.854,50.782l-1.414,1.414c-0.583,0.583-1.538,0.583-2.121,0v0
		c-0.583-0.583-0.583-1.538,0-2.121l1.414-1.414c0.583-0.583,1.538-0.583,2.121,0l0,0C160.437,49.245,160.437,50.199,159.854,50.782
		z"/>
	<path display="inline" fill="#666666" d="M164.803,50.075L146.419,68.46c-0.583,0.583-1.538,0.583-2.121,0
		c-0.583-0.583-0.583-1.538,0-2.121l10.607-10.607c0.583-0.583,0.583-1.538,0-2.121s-1.538-0.583-2.121,0
		c0,0-18.771,18.771-19.799,19.799c-2.929,2.929-2.929,7.678,0,10.607c2.929,2.929,7.678,2.929,10.607,0
		c0.398-0.398,21.92-21.92,21.92-21.92c0.583-0.583,0.583-1.538,0-2.121c-0.583-0.583-1.538-0.583-2.121,0l-11.314,11.314
		c-0.583,0.583-1.538,0.583-2.121,0s-0.583-1.538,0-2.121l16.971-16.971c0.583-0.583,0.583-1.538,0-2.121
		S165.387,49.492,164.803,50.075z"/>
	<g id="spacesuit" display="inline">
		<polygon id="star-3_6_" fill="#E5E5E5" points="51,13 50,11 49,13 47,14 49,15 50,17 51,15 53,14 		"/>
		<polygon id="star-3_3_" fill="#E5E5E5" points="136,44 135,42 134,44 132,45 134,46 135,48 136,46 138,45 		"/>
		<polygon id="star-3_4_" fill="#E5E5E5" points="31,87 30,85 29,87 27,88 29,89 30,91 31,89 33,88 		"/>
		<polygon id="star-3_5_" fill="#E5E5E5" points="26,16 25,14 24,16 22,17 24,18 25,20 26,18 28,17 		"/>
		<path fill="#808080" d="M290,136.128V23.094C290,10.34,279.66,0,266.906,0h-22.265C225.509,0,210,15.509,210,34.641v132.265
			c0,8.873,5.006,16.574,12.347,20.44c4.661,2.454,7.653,7.206,7.653,12.473V200h50v-0.807c0-4.57,2.095-8.878,5.665-11.732
			c2.642-2.113,4.335-5.36,4.335-9.008v-14.581c0-1.923,1.14-3.604,2.839-4.505C295.24,158.095,297,153.541,297,150l0,0
			c0-3.541-1.76-8.095-4.161-9.368C291.14,139.732,290,138.051,290,136.128z"/>
		<path fill="#E5E5E5" d="M232.247,180h41.629c3.382,0,6.124-2.742,6.124-6.124V28.371C280,18.225,271.775,10,261.629,10h-17.134
			C230.967,10,220,20.967,220,34.495v133.258C220,174.517,225.483,180,232.247,180z"/>
		<path fill="#808080" d="M145,190H15c-2.761,0-5-2.239-5-5v-70c0-2.761,2.239-5,5-5h130c2.761,0,5,2.239,5,5v70
			C150,187.761,147.761,190,145,190z"/>
		<path fill="#808080" d="M150,160c20.125,0,50-5,50-5s-50-5.125-50-15S150,157.125,150,160z"/>
		<polygon id="star-3" fill="#E5E5E5" points="4,2 3,0 2,2 0,3 2,4 3,6 4,4 6,3 		"/>
		<polygon id="star-3_1_" fill="#E5E5E5" points="14,39 13,37 12,39 10,40 12,41 13,43 14,41 16,40 		"/>
		<polygon id="star-3_2_" fill="#E5E5E5" points="6,84 5,82 4,84 2,85 4,86 5,88 6,86 8,85 		"/>
		<polygon id="star-3_7_" fill="#E5E5E5" points="124,15 123,13 122,15 120,16 122,17 123,19 124,17 126,16 		"/>
		<polygon id="star-3_8_" fill="#E5E5E5" points="197,95 196,93 195,95 193,96 195,97 196,99 197,97 199,96 		"/>
		<polygon id="star-3_9_" fill="#E5E5E5" points="118,86 117,84 116,86 114,87 116,88 117,90 118,88 120,87 		"/>
		<polygon id="star-3_10_" fill="#E5E5E5" points="164,17 163,15 162,17 160,18 162,19 163,21 164,19 166,18 		"/>
		<polygon id="star-3_11_" fill="#E5E5E5" points="197,2 196,0 195,2 193,3 195,4 196,6 197,4 199,3 		"/>
		<polygon id="star-3_12_" fill="#E5E5E5" points="181,78 180,76 179,78 177,79 179,80 180,82 181,80 183,79 		"/>
		<polygon id="star-3_13_" fill="#E5E5E5" points="184,43 183,41 182,43 180,44 182,45 183,47 184,45 186,44 		"/>
		<path fill="#808080" d="M293,150c0,5.523-1.277,10-6.8,10c-5.523,0-10-4.477-10-10s4.477-10,10-10
			C291.723,140,293,144.477,293,150z"/>
		<circle fill="#666666" cx="286.2" cy="150" r="6.25"/>
	</g>
	<g id="planet" display="inline">
		<g>
			<circle opacity="0.2" fill="#737373" cx="75" cy="50" r="50"/>
			<path fill="#666666" d="M41.569,63.776l4.785,8.288c0.722,1.25,0.289,2.863-0.961,3.585l-1.871,1.08
				c-1.25,0.722-2.863,0.289-3.585-0.961l-4.785-8.288c-0.722-1.25-0.289-2.863,0.961-3.585l1.871-1.08
				C39.233,62.094,40.847,62.526,41.569,63.776z"/>
			<path fill="#666666" d="M87.678,83.282l9.806-5.662c1.479-0.854,3.388-0.342,4.242,1.137l1.278,2.214
				c0.854,1.479,0.342,3.388-1.137,4.242l-9.806,5.662c-1.479,0.854-3.388,0.342-4.242-1.137l-1.278-2.214
				C85.687,86.045,86.199,84.136,87.678,83.282z"/>
			<path fill="#666666" d="M44.189,28.821l-2.935,5.084c-0.443,0.767-1.432,1.032-2.199,0.589l-1.148-0.663
				c-0.767-0.443-1.032-1.432-0.589-2.199l2.935-5.084c0.443-0.767,1.432-1.032,2.199-0.589l1.148,0.663
				C44.366,27.065,44.631,28.055,44.189,28.821z"/>
			<path fill="#666666" d="M110.909,54.697v-9.394c0-1.417,1.159-2.576,2.576-2.576h2.121c1.417,0,2.576,1.159,2.576,2.576v9.394
				c0,1.417-1.159,2.576-2.576,2.576h-2.121C112.068,57.273,110.909,56.114,110.909,54.697z"/>
			<path fill="#666666" d="M97.082,21.396l-8.351-4.822c-1.26-0.727-1.695-2.353-0.968-3.612l1.089-1.886
				c0.727-1.26,2.353-1.695,3.612-0.968l8.351,4.822c1.26,0.727,1.695,2.353,0.968,3.612l-1.089,1.886
				C99.967,21.688,98.341,22.124,97.082,21.396z"/>
			<g>
				<path fill="#808080" d="M70.455,87c1.004,0,1.818-0.496,1.818-1.5c0-1.004-0.814-1.5-1.818-1.5h-0.588H54.091h-2.366
					c2.015,1,4.163,2,6.419,3h11.562H70.455z"/>
				<path fill="#808080" d="M49.545,80h6.364h14.118H75c1.004,0,1.818-0.996,1.818-2c0-1.004-0.814-2-1.818-2h-4.813H55.909h-4.545
					c-1.004,0-1.818-0.496-1.818-1.5c0-1.004,0.814-1.5,1.818-1.5h6.364h12.62h3.743c1.004,0,1.818-0.996,1.818-2
					c0-1.004-0.814-2-1.818-2h-3.583H57.727h-4.545c-1.004,0-1.818-0.996-1.818-2c0-1.004,0.814-2,1.818-2h6.364h11.123h0.695
					c1.004,0,1.818-0.496,1.818-1.5c0-1.004-0.814-1.5-1.818-1.5h-0.535H59.545H55c-1.004,0-1.818-0.996-1.818-2
					c0-1.004,0.814-2,1.818-2h6.364h9.626H75c1.004,0,1.818-0.496,1.818-1.5c0-1.004-0.814-1.5-1.818-1.5h-3.85h-9.786h-4.545
					C55.814,55,55,54.004,55,53c0-1.004,0.814-2,1.818-2h6.364h8.128h1.872C74.186,51,75,50.004,75,49c0-1.004-0.814-2-1.818-2
					h-1.711h-8.289h-4.545c-1.004,0-1.818-0.496-1.818-1.5c0-1.004,0.814-1.5,1.818-1.5H65h6.631h4.278c1.004,0,1.818-0.996,1.818-2
					c0-1.004-0.814-2-1.818-2h-4.118H65h-4.545c-1.004,0-1.818-0.996-1.818-2c0-1.004,0.814-2,1.818-2h6.364h5.134h5.775
					c1.004,0,1.818-0.496,1.818-1.5c0-1.004-0.814-1.5-1.818-1.5h-5.615h-5.294h-4.545c-1.004,0-1.818-0.996-1.818-2
					c0-1.004,0.814-2,1.818-2h6.364h3.636h7.273c1.004,0,1.818-0.996,1.818-2c0-1.004-0.814-2-1.818-2h-7.121h-3.788h-4.545
					c-1.004,0-1.818-0.496-1.818-1.5c0-1.004,0.814-1.5,1.818-1.5h6.364h2.121h4.242c1.004,0,1.818-0.996,1.818-2
					c0-1.004-0.814-2-1.818-2h-4.091h-2.273h-4.545c-1.004,0-1.818-0.496-1.818-1.5c0-1.004,0.814-1.5,1.818-1.5h6.364h0.606H75
					c1.004,0,1.818-0.996,1.818-2c0-1.004-0.814-2-1.818-2h-1.97h-0.758h-4.545c-0.65,0-1.216-0.389-1.537-0.902
					c-18.357,4.031-32.099,20.357-32.099,39.925c0,12.273,5.412,23.264,13.97,30.762C48.39,80.318,48.931,80,49.545,80z"/>
				<path fill="#737373" d="M115.909,50c0-22.593-18.316-40.909-40.909-40.909c-3.026,0-5.971,0.384-8.81,1.007
					C66.511,10.611,67.077,11,67.727,11h4.545h0.758H75c1.004,0,1.818,0.996,1.818,2c0,1.004-0.814,2-1.818,2h-2.121h-0.606h-6.364
					c-1.004,0-1.818,0.496-1.818,1.5c0,1.004,0.814,1.5,1.818,1.5h4.545h2.273h4.091c1.004,0,1.818,0.996,1.818,2
					c0,1.004-0.814,2-1.818,2h-4.242h-2.121h-6.364c-1.004,0-1.818,0.496-1.818,1.5c0,1.004,0.814,1.5,1.818,1.5h4.545h3.788h7.121
					c1.004,0,1.818,0.996,1.818,2c0,1.004-0.814,2-1.818,2h-7.273h-3.636h-6.364c-1.004,0-1.818,0.996-1.818,2
					c0,1.004,0.814,2,1.818,2h4.545h5.294h5.615c1.004,0,1.818,0.496,1.818,1.5c0,1.004-0.814,1.5-1.818,1.5h-5.775h-5.134h-6.364
					c-1.004,0-1.818,0.996-1.818,2c0,1.004,0.814,2,1.818,2H65h6.791h4.118c1.004,0,1.818,0.996,1.818,2c0,1.004-0.814,2-1.818,2
					h-4.278H65h-6.364c-1.004,0-1.818,0.496-1.818,1.5c0,1.004,0.814,1.5,1.818,1.5h4.545h8.289h1.711C74.186,47,75,47.996,75,49
					c0,1.004-0.814,2-1.818,2H71.31h-8.128h-6.364C55.814,51,55,51.996,55,53c0,1.004,0.814,2,1.818,2h4.545h9.786H75
					c1.004,0,1.818,0.496,1.818,1.5c0,1.004-0.814,1.5-1.818,1.5h-4.011h-9.626H55c-1.004,0-1.818,0.996-1.818,2
					c0,1.004,0.814,2,1.818,2h4.545h11.283h0.535c1.004,0,1.818,0.496,1.818,1.5c0,1.004-0.814,1.5-1.818,1.5h-0.695H59.545h-6.364
					c-1.004,0-1.818,0.996-1.818,2c0,1.004,0.814,2,1.818,2h4.545h12.781h3.583c1.004,0,1.818,0.996,1.818,2
					c0,1.004-0.814,2-1.818,2h-3.743h-12.62h-6.364c-1.004,0-1.818,0.496-1.818,1.5c0,1.004,0.814,1.5,1.818,1.5h4.545h14.278H75
					c1.004,0,1.818,0.996,1.818,2c0,1.004-0.814,2-1.818,2h-4.973H55.909h-6.364c-0.614,0-1.155,0.489-1.484,0.955
					C49.227,81.976,50.448,83,51.725,84h2.366h15.775h0.588c1.004,0,1.818,0.496,1.818,1.5c0,1.004-0.814,1.5-1.818,1.5h-0.749
					H58.144c5.141,3,10.844,3.773,16.856,3.773C97.593,90.773,115.909,72.593,115.909,50z"/>
			</g>
			<path fill="#4C4C4C" d="M102.955,33.636h-9.545c-1.125,0-2.045-0.92-2.045-2.045v-0.682c0-1.125,0.92-2.045,2.045-2.045h9.545
				c1.125,0,2.045,0.92,2.045,2.045v0.682C105,32.716,104.08,33.636,102.955,33.636z"/>
			<path fill="#666666" d="M102.955,34.545h-9.545c-1.125,0-2.045-0.92-2.045-2.045v-0.682c0-1.125,0.92-2.045,2.045-2.045h9.545
				c1.125,0,2.045,0.92,2.045,2.045V32.5C105,33.625,104.08,34.545,102.955,34.545z"/>
			<path fill="#4C4C4C" d="M59.727,57.682h-7.636c-0.9,0-1.636-0.736-1.636-1.636V55.5c0-0.9,0.736-1.636,1.636-1.636h7.636
				c0.9,0,1.636,0.736,1.636,1.636v0.545C61.364,56.945,60.627,57.682,59.727,57.682z"/>
			<path fill="#666666" d="M59.727,58.409h-7.636c-0.9,0-1.636-0.736-1.636-1.636v-0.545c0-0.9,0.736-1.636,1.636-1.636h7.636
				c0.9,0,1.636,0.736,1.636,1.636v0.545C61.364,57.673,60.627,58.409,59.727,58.409z"/>
			<path fill="#4C4C4C" d="M63.453,80h-5.087c-0.851,0-1.547-0.696-1.547-1.547v-1.458c0-0.851,0.696-1.547,1.547-1.547h5.087
				c0.851,0,1.547,0.696,1.547,1.547v1.458C65,79.304,64.304,80,63.453,80z"/>
			<path fill="#999999" d="M63.423,79.091h-5.028c-0.867,0-1.577-0.71-1.577-1.577V75.94c0-0.867,0.71-1.577,1.577-1.577h5.028
				c0.867,0,1.577,0.71,1.577,1.577v1.574C65,78.381,64.29,79.091,63.423,79.091z"/>
			<path fill="#4C4C4C" d="M82.451,24.636H70.556c-1.402,0-2.549-1.147-2.549-2.549v-0.85c0-1.402,1.147-2.549,2.549-2.549h11.895
				c1.402,0,2.549,1.147,2.549,2.549v0.85C85,23.489,83.853,24.636,82.451,24.636z"/>
			<path fill="#999999" d="M82.363,23.636h-11.72c-1.45,0-2.637-1.186-2.637-2.637v-1.09c0-1.45,1.186-2.637,2.637-2.637h11.72
				c1.45,0,2.637,1.186,2.637,2.637V21C85,22.45,83.814,23.636,82.363,23.636z"/>
			<path fill="#4C4C4C" d="M63.318,39.682H51.227c-1.425,0-2.591-1.166-2.591-2.591v-0.864c0-1.425,1.166-2.591,2.591-2.591h12.091
				c1.425,0,2.591,1.166,2.591,2.591v0.864C65.909,38.516,64.743,39.682,63.318,39.682z"/>
			<path fill="#666666" d="M63.318,40.833H51.227c-1.425,0-2.591-1.166-2.591-2.591v-0.864c0-1.425,1.166-2.591,2.591-2.591h12.091
				c1.425,0,2.591,1.166,2.591,2.591v0.864C65.909,39.667,64.743,40.833,63.318,40.833z"/>
			<path fill="#666666" d="M60.555,16.478l-7.364,4.252c-1.111,0.641-2.544,0.257-3.185-0.853l-0.96-1.663
				c-0.641-1.111-0.257-2.544,0.853-3.185l7.364-4.252c1.111-0.641,2.544-0.257,3.185,0.853l0.96,1.663
				C62.05,14.403,61.666,15.836,60.555,16.478z"/>
			<path fill="#999999" d="M59.98,14.923l-7.847,4.531c-0.978,0.565-2.24,0.226-2.804-0.751l-0.422-0.731
				c-0.565-0.978-0.226-2.24,0.751-2.804l7.847-4.531c0.978-0.565,2.24-0.226,2.804,0.751l0.422,0.731
				C61.295,13.096,60.957,14.358,59.98,14.923z"/>
			<path fill="#4C4C4C" d="M95.182,72h-7.636c-0.9,0-1.636-0.736-1.636-1.636v-0.545c0-0.9,0.736-1.636,1.636-1.636h7.636
				c0.9,0,1.636,0.736,1.636,1.636v0.545C96.818,71.264,96.082,72,95.182,72z"/>
			<path fill="#666666" d="M95.182,72.727h-7.636c-0.9,0-1.636-0.736-1.636-1.636v-0.545c0-0.9,0.736-1.636,1.636-1.636h7.636
				c0.9,0,1.636,0.736,1.636,1.636v0.545C96.818,71.991,96.082,72.727,95.182,72.727z"/>
			<path fill="#4C4C4C" d="M90.318,56.273H76.955c-1.575,0-2.864-1.289-2.864-2.864v-0.955c0-1.575,1.289-2.864,2.864-2.864h13.364
				c1.575,0,2.864,1.289,2.864,2.864v0.955C93.182,54.984,91.893,56.273,90.318,56.273z"/>
			<path fill="#999999" d="M90.157,55.455H77.116c-1.664,0-3.025-1.361-3.025-3.025v-1.405c0-1.664,1.361-3.025,3.025-3.025h13.042
				c1.664,0,3.025,1.361,3.025,3.025v1.405C93.182,54.093,91.821,55.455,90.157,55.455z"/>
		</g>
	</g>
	<g id="Layer_8" display="inline">
		<g id="ryan">
			<polygon id="body_3_" fill="#C6C3B9" points="230,165 230,125 270,125 270,180 240,180 240,165 			"/>
			<linearGradient id="shadow-hat_5_" gradientUnits="userSpaceOnUse" x1="250.0368" y1="128.7902" x2="250.2416" y2="149.8883">
				<stop  offset="0" style="stop-color:#8C8873;stop-opacity:0.9"/>
				<stop  offset="1" style="stop-color:#C6C3B9;stop-opacity:0"/>
			</linearGradient>
			<polygon id="shadow-hat_2_" fill="url(#shadow-hat_5_)" points="230,125 240,165 270,165 270,125 			"/>
			<g>
				<path fill="#8C8873" d="M246,172h-5v1c0,0.366,0.106,0.705,0.277,1c0.346-0.595,0.984-1,1.723-1h1c0.738,0,1.376,0.405,1.723,1
					c0.172-0.295,0.277-0.634,0.277-1V172z"/>
				<path fill="#F2F2F2" d="M244,173h-1c-0.738,0-1.376,0.405-1.723,1c0.346,0.595,0.984,1,1.723,1h1c0.738,0,1.376-0.405,1.723-1
					C245.376,173.405,244.738,173,244,173z"/>
			</g>
			<g id="eyes">
				<g id="left-eye_3_">
					<path id="left-eye_cornea" fill="#8C8873" d="M227,141c0,2.209,0.791,4,3,4s3-1.791,3-4s-0.791-4-3-4S227,138.791,227,141z"/>
					<path id="left-eye-pupil" fill="#38362E" d="M230,142.333c-0.736,0-1-0.597-1-1.333s0.264-1.333,1-1.333s1,0.597,1,1.333
						S230.736,142.333,230,142.333z"/>
				</g>
				<g id="right-eye_3_">
					<circle id="right-eye_cornea" fill="#8C8873" cx="249" cy="141" r="5"/>
					<circle id="right-eye_pupil" fill="#545245" cx="249" cy="141" r="2"/>
				</g>
			</g>
			<g id="monocle_1_">
				<g id="monocle-shadow">
					<rect id="monocle-shadow_handle_1_" x="256" y="141" fill="#AFAC9D" width="1" height="1"/>
					<rect id="monocle-shadow_chain_1_" x="257" y="168" fill="#AFAC9D" width="2" height="2"/>
					<path id="monocle-shadow_bottom_1_" fill="#AFAC9D" d="M249,148c-3.691,0-6.716-2.874-6.975-6.5
						c-0.012,0.166-0.025,0.331-0.025,0.5c0,3.86,3.14,7,7,7c2.785,0,5.189-1.639,6.315-4H259v-1h-3.685
						C254.189,146.361,251.785,148,249,148z"/>
					<path id="monocle-shadow_top_1_" fill="#706D5C" d="M249,136c-2.761,0-5,2.239-5,5c0,0.171,0.034,0.333,0.05,0.5
						c0.254-2.523,2.359-4.5,4.95-4.5s4.695,1.977,4.95,4.5c0.017-0.167,0.05-0.329,0.05-0.5C254,138.239,251.761,136,249,136z"/>
				</g>
				<rect id="monocle-chain_1_" x="257" y="142" fill="#BD350F" width="2" height="26"/>
				<path id="monocle-ring" fill="#BD350F" d="M255.705,139c-0.863-2.888-3.541-5-6.705-5c-3.86,0-7,3.14-7,7
					c0,0.169,0.014,0.334,0.025,0.5c0.258,3.626,3.284,6.5,6.975,6.5c2.785,0,5.189-1.639,6.315-4H259v-4v-1H255.705z M253.95,141.5
					c-0.254,2.523-2.359,4.5-4.95,4.5s-4.695-1.977-4.95-4.5c-0.017-0.167-0.05-0.329-0.05-0.5c0-2.761,2.239-5,5-5s5,2.239,5,5
					C254,141.171,253.966,141.333,253.95,141.5z M257,142h-1v-1h1V142z"/>
				<circle id="monocle-glare_1_" fill="#C6C3B9" cx="248" cy="139" r="1"/>
			</g>
			<g id="hat">
				<polygon id="hat-main" fill="#38362E" points="270,123 260,60 270,30 230,20 230,123 225,123 225,125 275,125 275,123 				"/>
				<g id="stars_1_">
					<polygon id="star-top" fill="#D43B11" points="260,35 258.5,32 257,35 254,36.5 257,38 258.5,47 260,38 263,36.5 					"/>
				</g>
			</g>
		</g>
	</g>
</g>
<g id="dapper_office">
	<g id="bg">
		<rect id="floor" fill="#333333" width="512" height="512"/>
		<rect id="wall_1_" fill="#404040" width="512" height="256"/>
	</g>
	<g id="wall">
	</g>
	<g id="fireplace">
		<rect x="192" y="192" fill="#333333" width="128" height="136"/>
		<polygon fill="#4C4C4C" points="144,144 144,320 192,320 192,192 320,192 320,320 368,320 368,144 		"/>
	</g>
	<g id="fire">
	</g>
	<g id="painting">
		<polygon id="frame-matte" fill="#404040" points="328,0 328,40 184,40 184,0 176,0 176,48 336,48 336,0 		"/>
		<polygon id="frame-outter" fill="#4C4C4C" points="336,0 336,48 176,48 176,0 160,0 160,64 352,64 352,0 		"/>
		<rect id="artbg" x="184" fill="#4C4C4C" width="144" height="40"/>
	</g>
	<g id="awards">
		<rect x="144" y="80" fill="#666666" width="32" height="64"/>
	</g>
	<rect x="240" y="80" fill="#666666" width="32" height="64"/>
	<rect x="336" y="80" fill="#666666" width="32" height="64"/>
	<rect x="416" fill="#666666" width="96" height="320"/>
	<rect x="448" fill="#333333" width="64" height="287.942"/>
	<rect x="448" y="56" fill="#4C4C4C" width="64" height="8"/>
	<rect x="448" y="24" fill="#4C4C4C" width="64" height="8.014"/>
	<g id="guides">
	</g>
	<g id="rug">
		<rect x="40" y="368" fill="#404040" width="432" height="128"/>
		<rect x="472" y="369" fill="#4C4C4C" width="8" height="2"/>
		<rect x="472" y="373" fill="#4C4C4C" width="8" height="2"/>
		<rect x="472" y="377" fill="#4C4C4C" width="8" height="2"/>
		<rect x="472" y="381" fill="#4C4C4C" width="8" height="2"/>
		<rect x="472" y="385" fill="#4C4C4C" width="8" height="2"/>
		<rect x="472" y="389" fill="#4C4C4C" width="8" height="2"/>
		<rect x="472" y="393" fill="#4C4C4C" width="8" height="2"/>
		<rect x="472" y="397" fill="#4C4C4C" width="8" height="2"/>
		<rect x="472" y="401" fill="#4C4C4C" width="8" height="2"/>
		<rect x="472" y="405" fill="#4C4C4C" width="8" height="2"/>
		<rect x="472" y="409" fill="#4C4C4C" width="8" height="2"/>
		<rect x="472" y="413" fill="#4C4C4C" width="8" height="2"/>
		<rect x="472" y="417" fill="#4C4C4C" width="8" height="2"/>
		<rect x="472" y="421" fill="#4C4C4C" width="8" height="2"/>
		<rect x="472" y="425" fill="#4C4C4C" width="8" height="2"/>
		<rect x="472" y="429" fill="#4C4C4C" width="8" height="2"/>
		<rect x="472" y="433" fill="#4C4C4C" width="8" height="2"/>
		<rect x="472" y="437" fill="#4C4C4C" width="8" height="2"/>
		<rect x="472" y="441" fill="#4C4C4C" width="8" height="2"/>
		<rect x="472" y="445" fill="#4C4C4C" width="8" height="2"/>
		<rect x="472" y="449" fill="#4C4C4C" width="8" height="2"/>
		<rect x="472" y="453" fill="#4C4C4C" width="8" height="2"/>
		<rect x="472" y="457" fill="#4C4C4C" width="8" height="2"/>
		<rect x="472" y="461" fill="#4C4C4C" width="8" height="2"/>
		<rect x="472" y="465" fill="#4C4C4C" width="8" height="2"/>
		<rect x="472" y="469" fill="#4C4C4C" width="8" height="2"/>
		<rect x="472" y="473" fill="#4C4C4C" width="8" height="2"/>
		<rect x="472" y="477" fill="#4C4C4C" width="8" height="2"/>
		<rect x="472" y="481" fill="#4C4C4C" width="8" height="2"/>
		<rect x="472" y="485" fill="#4C4C4C" width="8" height="2"/>
		<rect x="472" y="489" fill="#4C4C4C" width="8" height="2"/>
		<rect x="472" y="493" fill="#4C4C4C" width="8" height="2"/>
		<rect x="32" y="369" fill="#4C4C4C" width="8" height="2"/>
		<rect x="32" y="373" fill="#4C4C4C" width="8" height="2"/>
		<rect x="32" y="377" fill="#4C4C4C" width="8" height="2"/>
		<rect x="32" y="381" fill="#4C4C4C" width="8" height="2"/>
		<rect x="32" y="385" fill="#4C4C4C" width="8" height="2"/>
		<rect x="32" y="389" fill="#4C4C4C" width="8" height="2"/>
		<rect x="32" y="393" fill="#4C4C4C" width="8" height="2"/>
		<rect x="32" y="397" fill="#4C4C4C" width="8" height="2"/>
		<rect x="32" y="401" fill="#4C4C4C" width="8" height="2"/>
		<rect x="32" y="405" fill="#4C4C4C" width="8" height="2"/>
		<rect x="32" y="409" fill="#4C4C4C" width="8" height="2"/>
		<rect x="32" y="413" fill="#4C4C4C" width="8" height="2"/>
		<rect x="32" y="417" fill="#4C4C4C" width="8" height="2"/>
		<rect x="32" y="421" fill="#4C4C4C" width="8" height="2"/>
		<rect x="32" y="425" fill="#4C4C4C" width="8" height="2"/>
		<rect x="32" y="429" fill="#4C4C4C" width="8" height="2"/>
		<rect x="32" y="433" fill="#4C4C4C" width="8" height="2"/>
		<rect x="32" y="437" fill="#4C4C4C" width="8" height="2"/>
		<rect x="32" y="441" fill="#4C4C4C" width="8" height="2"/>
		<rect x="32" y="445" fill="#4C4C4C" width="8" height="2"/>
		<rect x="32" y="449" fill="#4C4C4C" width="8" height="2"/>
		<rect x="32" y="453" fill="#4C4C4C" width="8" height="2"/>
		<rect x="32" y="457" fill="#4C4C4C" width="8" height="2"/>
		<rect x="32" y="461" fill="#4C4C4C" width="8" height="2"/>
		<rect x="32" y="465" fill="#4C4C4C" width="8" height="2"/>
		<rect x="32" y="469" fill="#4C4C4C" width="8" height="2"/>
		<rect x="32" y="473" fill="#4C4C4C" width="8" height="2"/>
		<rect x="32" y="477" fill="#4C4C4C" width="8" height="2"/>
		<rect x="32" y="481" fill="#4C4C4C" width="8" height="2"/>
		<rect x="32" y="485" fill="#4C4C4C" width="8" height="2"/>
		<g>
			<rect x="56" y="384" fill="#4C4C4C" width="400" height="96"/>
			<rect x="44" y="373" fill="#4C4C4C" width="8" height="6"/>
			<rect x="56" y="374" fill="#4C4C4C" width="400" height="4"/>
			<rect x="56" y="486" fill="#4C4C4C" width="400" height="4"/>
			<rect x="44" y="485" fill="#4C4C4C" width="8" height="6"/>
			<rect x="460" y="373" fill="#4C4C4C" width="8" height="6"/>
			<rect x="462" y="384" fill="#4C4C4C" width="4" height="96"/>
			<rect x="46" y="384" fill="#4C4C4C" width="4" height="96"/>
			<rect x="460" y="485" fill="#4C4C4C" width="8" height="6"/>
		</g>
		<rect x="32" y="489" fill="#4C4C4C" width="8" height="2"/>
		<rect x="32" y="493" fill="#4C4C4C" width="8" height="2"/>
		<g>
			<rect x="88" y="412" fill="#404040" width="160" height="40"/>
			<rect x="88" y="400" fill="#404040" width="8" height="16"/>
			<rect x="88" y="448" fill="#404040" width="8" height="16"/>
		</g>
		<g>
			<rect x="264" y="412" fill="#404040" width="160" height="40"/>
			<rect x="416" y="400" fill="#404040" width="8" height="16"/>
			<rect x="416" y="448" fill="#404040" width="8" height="16"/>
		</g>
	</g>
	<rect id="book-26" x="510" y="37" fill="#4C4C4C" width="2" height="19.241"/>
	<rect id="book-25" x="505" y="41" fill="#404040" width="5" height="15"/>
	<rect id="book-24" x="499" y="37" fill="#4C4C4C" width="6" height="19"/>
	<rect id="book-23" x="492" y="33" fill="#666666" width="7" height="23"/>
	<rect id="book-22" x="487" y="39" fill="#4C4C4C" width="5" height="17"/>
	<rect id="book-21" x="484" y="37" fill="#404040" width="3" height="19"/>
	<rect id="book-20" x="481" y="41" fill="#4C4C4C" width="3" height="15"/>
	<rect id="book-19" x="471" y="32.759" fill="#666666" width="10" height="23.241"/>
	<rect id="book-18" x="465" y="35.759" fill="#404040" width="6" height="20.241"/>
	<rect id="book-17" x="457" y="34" fill="#4C4C4C" width="8" height="22"/>
	<rect id="book-16" x="452" y="45" fill="#666666" width="5" height="11"/>
	<rect id="book-15" x="448" y="37" fill="#4C4C4C" width="4" height="19.241"/>
	<rect id="book-14" x="508" y="11.312" fill="#4C4C4C" width="4" height="12.688"/>
	<rect id="book-13" x="503" y="13" fill="#666666" width="5" height="11"/>
	<rect id="book-12" x="495" y="2" fill="#404040" width="8" height="22"/>
	<rect id="book-11" x="492" y="13" fill="#4C4C4C" width="3" height="11"/>
	<rect id="book-10" x="489" y="10" fill="#666666" width="3" height="14"/>
	<rect id="book-9" x="486" y="9" fill="#404040" width="3" height="15"/>
	<rect id="book-8" x="481" y="6" fill="#4C4C4C" width="5" height="18"/>
	<rect id="book-7" x="476" y="11" fill="#404040" width="5" height="13"/>
	<rect id="book-6" x="468" y="2" fill="#4C4C4C" width="8" height="22"/>
	<rect id="book-5" x="460" y="6" fill="#666666" width="8" height="18"/>
	<rect id="book-4" x="456" y="10" fill="#404040" width="4" height="14"/>
	<rect id="book-3" x="452" y="12" fill="#4C4C4C" width="4" height="12"/>
	<rect id="book-2" x="449" y="13" fill="#404040" width="3" height="11"/>
	<rect id="book-1" x="448" y="11.312" fill="#4C4C4C" width="1" height="12.688"/>
</g>
<g id="chairs" display="none">
	<rect x="66" y="383" display="inline" fill="#666666" width="93" height="78"/>
	<rect x="66" y="225" display="inline" fill="#666666" width="16" height="166"/>
	<rect x="347" y="383" display="inline" fill="#666666" width="93" height="78"/>
	<rect x="424" y="225" display="inline" fill="#666666" width="16" height="166"/>
</g>
<g id="avatars" display="none">
	<g id="jo_2_" display="inline">
		<rect x="90" y="57" fill="#666666" width="64" height="319"/>
		<rect x="153" y="352" fill="#666666" width="33" height="24"/>
		<rect x="172" y="375" fill="#666666" width="14" height="84"/>
	</g>
	<g id="ryan_2_" display="inline">
		<rect x="352" y="57" fill="#666666" width="64" height="319"/>
		<rect x="320" y="352" fill="#666666" width="33" height="24"/>
		<rect x="320" y="375" fill="#666666" width="14" height="84"/>
	</g>
</g>
</svg>
