<?xml version="1.0" encoding="utf-8"?>
<!-- Author: Ryan Allen | Dapper Gentlemen  -->
<!DOCTYPE svg PUBLIC "-//W3C//DTD SVG 1.1//EN" "http://www.w3.org/Graphics/SVG/1.1/DTD/svg11.dtd">
<svg 
	version="1.1" 
	id="bioware-style-conversation-wheel" 
	xmlns="http://www.w3.org/2000/svg" 
	xmlns:xlink="http://www.w3.org/1999/xlink" 
	x="0px" 
	y="0px"
	viewBox="0 0 100 100" 
	enable-background="new 0 0 100 100" 
	xml:space="preserve"
	>
	<path 
		id="selector-outside" 
		fill="#47566B" 
		d="M28,16.6l-13.4-1.9l2,13.3c-8.7,13.3-8.7,30.6,0,43.9l-1.9,13.4L28,83.4
		c13.3,8.7,30.6,8.7,43.9,0l13.4,1.9L83.4,72c8.7-13.3,8.7-30.6,0-43.9l1.9-13.4L72,16.6C58.7,7.8,41.3,7.8,28,16.6z M71.2,28.8
		c11.7,11.7,11.7,30.7,0,42.4s-30.7,11.7-42.4,0s-11.7-30.7,0-42.4S59.5,17.1,71.2,28.8z"
		/>
	<circle 
		id="selector-inside" 
		fill="#414F62" 
		cx="50" 
		cy="50" 
		r="15"
		/>
</svg>
