<?xml version="1.0" encoding="utf-8"?>
<!-- Generator: Adobe Illustrator 18.1.1, SVG Export Plug-In . SVG Version: 6.00 Build 0)  -->
<!DOCTYPE svg PUBLIC "-//W3C//DTD SVG 1.1//EN" "http://www.w3.org/Graphics/SVG/1.1/DTD/svg11.dtd">
<svg version="1.1" xmlns="http://www.w3.org/2000/svg" xmlns:xlink="http://www.w3.org/1999/xlink" x="0px" y="0px"
	 viewBox="0 0 200 100" enable-background="new 0 0 200 100" xml:space="preserve">
<g id="comet_1_">
	
		<linearGradient id="comet-tail_1_" gradientUnits="userSpaceOnUse" x1="117.0797" y1="40.136" x2="198.0797" y2="40.136" gradientTransform="matrix(0.7071 -0.7071 0.7071 0.7071 19.6939 140.5452)">
		<stop  offset="0" style="stop-color:#3D4A5C;stop-opacity:0.4"/>
		<stop  offset="1" style="stop-color:#8596AD;stop-opacity:0"/>
	</linearGradient>
	<path id="comet-tail" fill="url(#comet-tail_1_)" d="M130.6,71.5c-4.5,4.5-3.8,10.5,0.3,14.6c4.1,4.1,10.1,4.7,14.6,0.3
		c1.3-1.3,50.1-50.1,50.1-50.1l-14.8-14.8C180.7,21.4,131.9,70.3,130.6,71.5z"/>
	<g id="comet-body">
		<path id="comet-body-trailing" fill="#D43B11" d="M158.4,52.2l1.4-1.4c0.6-0.6,0.6-1.5,0-2.1c-0.6-0.6-1.5-0.6-2.1,0l-1.4,1.4
			c-0.6,0.6-0.6,1.5,0,2.1C156.9,52.8,157.9,52.8,158.4,52.2z"/>
		<path id="comet-body-main" fill="#D43B11" d="M166.9,52.2c0.6-0.6,0.6-1.5,0-2.1s-1.5-0.6-2.1,0l-18.4,18.4
			c-0.6,0.6-1.5,0.6-2.1,0s-0.6-1.5,0-2.1l10.6-10.6c0.6-0.6,0.6-1.5,0-2.1s-1.5-0.6-2.1,0c0,0-18.8,18.8-19.8,19.8
			c-2.9,2.9-2.9,7.7,0,10.6c2.9,2.9,7.7,2.9,10.6,0c0.4-0.4,21.9-21.9,21.9-21.9c0.6-0.6,0.6-1.5,0-2.1c-0.6-0.6-1.5-0.6-2.1,0
			l-11.3,11.3c-0.6,0.6-1.5,0.6-2.1,0s-0.6-1.5,0-2.1L166.9,52.2z"/>
	</g>
</g>
<g id="planet">
	<circle id="planet-glow" fill="#333E4D" cx="75" cy="50" r="48"/>
	<g id="crater-back">
		<path id="crater-back4" fill="#52637A" d="M44.2,28.8l-2.9,5.1c-0.4,0.8-1.4,1-2.2,0.6l-1.1-0.7c-0.8-0.4-1-1.4-0.6-2.2l2.9-5.1
			c0.4-0.8,1.4-1,2.2-0.6l1.1,0.7C44.4,27.1,44.6,28.1,44.2,28.8z"/>
		<path id="crater-back3" fill="#52637A" d="M41.6,63.8l4.8,8.3c0.7,1.3,0.3,2.9-1,3.6l-1.9,1.1c-1.3,0.7-2.9,0.3-3.6-1l-4.8-8.3
			c-0.7-1.3-0.3-2.9,1-3.6l1.9-1.1C39.2,62.1,40.8,62.5,41.6,63.8z"/>
		<path id="crater-back2" fill="#52637A" d="M110.9,54.7v-9.4c0-1.4,1.2-2.6,2.6-2.6h2.1c1.4,0,2.6,1.2,2.6,2.6v9.4
			c0,1.4-1.2,2.6-2.6,2.6h-2.1C112.1,57.3,110.9,56.1,110.9,54.7z"/>
		<path id="crater-back1" fill="#52637A" d="M97.1,21.4l-8.4-4.8c-1.3-0.7-1.7-2.4-1-3.6l1.1-1.9c0.7-1.3,2.4-1.7,3.6-1l8.4,4.8
			c1.3,0.7,1.7,2.4,1,3.6l-1.1,1.9C100,21.7,98.3,22.1,97.1,21.4z"/>
	</g>
	<g id="planet_2_">
		<path id="planet-shadow" fill="#3D4A5C" d="M90.8,12.2C92.9,17,94,22.4,94,28c0,22.6-18.4,41-41,41c-5.6,0-11-1.1-15.8-3.2
			C43.4,80.6,58,91,75,91c22.6,0,41-18.4,41-41C116,33,105.6,18.4,90.8,12.2z"/>
		<path id="planet-light" fill="#52637A" d="M94,28c0-5.6-1.1-11-3.2-15.8C86,10.1,80.6,9,75,9C52.4,9,34,27.4,34,50
			c0,5.6,1.1,11,3.2,15.8C42,67.9,47.4,69,53,69C75.6,69,94,50.6,94,28z"/>
	</g>
	<g id="crater-down">
		<g id="crater-down4">
			<path id="down4-shadow" fill="#29313D" d="M95.2,72h-7.6c-0.9,0-1.6-0.7-1.6-1.6v-0.5c0-0.9,0.7-1.6,1.6-1.6h7.6
				c0.9,0,1.6,0.7,1.6,1.6v0.5C96.8,71.3,96.1,72,95.2,72z"/>
			<path id="down4-surface" fill="#3D4A5C" d="M95.2,72.7h-7.6c-0.9,0-1.6-0.7-1.6-1.6v-0.5c0-0.9,0.7-1.6,1.6-1.6h7.6
				c0.9,0,1.6,0.7,1.6,1.6v0.5C96.8,72,96.1,72.7,95.2,72.7z"/>
		</g>
		<g id="crater-down3">
			<path id="down3-shadow" fill="#29313D" d="M59.7,57.7h-7.6c-0.9,0-1.6-0.7-1.6-1.6v-0.5c0-0.9,0.7-1.6,1.6-1.6h7.6
				c0.9,0,1.6,0.7,1.6,1.6V56C61.4,56.9,60.6,57.7,59.7,57.7z"/>
			<path id="down3-surface" fill="#3D4A5C" d="M59.7,58.4h-7.6c-0.9,0-1.6-0.7-1.6-1.6v-0.5c0-0.9,0.7-1.6,1.6-1.6h7.6
				c0.9,0,1.6,0.7,1.6,1.6v0.5C61.4,57.7,60.6,58.4,59.7,58.4z"/>
		</g>
		<g id="crater-down2">
			<path id="down2-shadow" fill="#29313D" d="M63.3,39.7H51.2c-1.4,0-2.6-1.2-2.6-2.6v-0.9c0-1.4,1.2-2.6,2.6-2.6h12.1
				c1.4,0,2.6,1.2,2.6,2.6v0.9C65.9,38.5,64.7,39.7,63.3,39.7z"/>
			<path id="down2-surface" fill="#3D4A5C" d="M63.3,40.8H51.2c-1.4,0-2.6-1.2-2.6-2.6v-0.9c0-1.4,1.2-2.6,2.6-2.6h12.1
				c1.4,0,2.6,1.2,2.6,2.6v0.9C65.9,39.7,64.7,40.8,63.3,40.8z"/>
		</g>
		<g id="crater-down1">
			<path id="down1-shadow" fill="#29313D" d="M103,33.6h-9.5c-1.1,0-2-0.9-2-2v-0.7c0-1.1,0.9-2,2-2h9.5c1.1,0,2,0.9,2,2v0.7
				C105,32.7,104.1,33.6,103,33.6z"/>
			<path id="down1-surface" fill="#3D4A5C" d="M103,34.5h-9.5c-1.1,0-2-0.9-2-2v-0.7c0-1.1,0.9-2,2-2h9.5c1.1,0,2,0.9,2,2v0.7
				C105,33.6,104.1,34.5,103,34.5z"/>
		</g>
	</g>
	<g id="crater-up">
		<g id="crater-up4">
			<path id="up4-shadow" fill="#29313D" d="M63.5,80h-5.1c-0.9,0-1.5-0.7-1.5-1.5V77c0-0.9,0.7-1.5,1.5-1.5h5.1
				c0.9,0,1.5,0.7,1.5,1.5v1.5C65,79.3,64.3,80,63.5,80z"/>
			<path id="up4-surface" fill="#52637A" d="M63.4,79.1h-5c-0.9,0-1.6-0.7-1.6-1.6v-1.6c0-0.9,0.7-1.6,1.6-1.6h5
				c0.9,0,1.6,0.7,1.6,1.6v1.6C65,78.4,64.3,79.1,63.4,79.1z"/>
		</g>
		<g id="crater-up3">
			<path id="up3-shadow" fill="#29313D" d="M90.3,56.3H77c-1.6,0-2.9-1.3-2.9-2.9v-1c0-1.6,1.3-2.9,2.9-2.9h13.4
				c1.6,0,2.9,1.3,2.9,2.9v1C93.2,55,91.9,56.3,90.3,56.3z"/>
			<path id="up3-surface" fill="#52637A" d="M90.2,55.5h-13c-1.7,0-3-1.4-3-3V51c0-1.7,1.4-3,3-3h13c1.7,0,3,1.4,3,3v1.4
				C93.2,54.1,91.8,55.5,90.2,55.5z"/>
		</g>
		<g id="crater-up2">
			<path id="up2-shadow" fill="#29313D" d="M82.5,24.6H70.6c-1.4,0-2.5-1.1-2.5-2.5v-0.8c0-1.4,1.1-2.5,2.5-2.5h11.9
				c1.4,0,2.5,1.1,2.5,2.5v0.8C85,23.5,83.9,24.6,82.5,24.6z"/>
			<path id="up2-surface" fill="#52637A" d="M82.4,23.6H70.6c-1.5,0-2.6-1.2-2.6-2.6v-1.1c0-1.5,1.2-2.6,2.6-2.6h11.7
				c1.5,0,2.6,1.2,2.6,2.6V21C85,22.4,83.8,23.6,82.4,23.6z"/>
		</g>
		<g id="crater-up1">
			<path id="up1-shadow" fill="#29313D" d="M60.6,16.5l-7.4,4.3c-1.1,0.6-2.5,0.3-3.2-0.9l-1-1.7c-0.6-1.1-0.3-2.5,0.9-3.2l7.4-4.3
				c1.1-0.6,2.5-0.3,3.2,0.9l1,1.7C62,14.4,61.7,15.8,60.6,16.5z"/>
			<path id="up1-surface" fill="#52637A" d="M60,14.9l-7.8,4.5c-1,0.6-2.2,0.2-2.8-0.8L48.9,18c-0.6-1-0.2-2.2,0.8-2.8l7.8-4.5
				c1-0.6,2.2-0.2,2.8,0.8l0.4,0.7C61.3,13.1,61,14.4,60,14.9z"/>
		</g>
	</g>
</g>
</svg>
