<?xml version="1.0" encoding="utf-8"?>
<!-- Generator: Adobe Illustrator 18.1.1, SVG Export Plug-In . SVG Version: 6.00 Build 0)  -->
<!DOCTYPE svg PUBLIC "-//W3C//DTD SVG 1.1//EN" "http://www.w3.org/Graphics/SVG/1.1/DTD/svg11.dtd">
<svg version="1.1" id="spacesuit" xmlns="http://www.w3.org/2000/svg" xmlns:xlink="http://www.w3.org/1999/xlink" x="0px" y="0px"
	 viewBox="0 0 100 200" enable-background="new 0 0 100 200" xml:space="preserve">
<path id="helmet-interior" fill="#3D4A5C" d="M32.247,180h41.629c3.382,0,6.124-2.742,6.124-6.124V28.371
	C80,18.225,71.775,10,61.629,10H44.495C30.967,10,20,20.967,20,34.495v133.258C20,174.517,25.483,180,32.247,180z"/>
<g id="space-ryan">
	<polygon id="body_3_" fill="#8596AD" points="30,165 30,125 70,125 70,180 40,180 40,165 	"/>
	<linearGradient id="shadow-hat_1_" gradientUnits="userSpaceOnUse" x1="50.0368" y1="128.7902" x2="50.2416" y2="149.8883">
		<stop  offset="0" style="stop-color:#52637A;stop-opacity:0.9"/>
		<stop  offset="1" style="stop-color:#667B99;stop-opacity:0"/>
	</linearGradient>
	<polygon id="shadow-hat_2_" fill="url(#shadow-hat_1_)" points="30,125 40,165 70,165 70,125 	"/>
	<g id="mouth">
		<path id="mouth-roof" fill="#29313D" d="M46,172h-5v1c0,0.366,0.106,0.705,0.277,1c0.346-0.595,0.984-1,1.723-1h1
			c0.738,0,1.376,0.405,1.723,1c0.172-0.295,0.277-0.634,0.277-1V172z"/>
		<path id="tongue" fill="#52637A" d="M44,173h-1c-0.738,0-1.376,0.405-1.723,1c0.346,0.595,0.984,1,1.723,1h1
			c0.738,0,1.376-0.405,1.723-1C45.376,173.405,44.738,173,44,173z"/>
	</g>
	<g id="eyes">
		<g id="left-eye_3_">
			<path id="left-eye_cornea" fill="#52637A" d="M27,141c0,2.209,0.791,4,3,4s3-1.791,3-4s-0.791-4-3-4S27,138.791,27,141z"/>
			<path id="left-eye-pupil" fill="#29313D" d="M30,142.333c-0.736,0-1-0.597-1-1.333s0.264-1.333,1-1.333s1,0.597,1,1.333
				S30.736,142.333,30,142.333z"/>
		</g>
		<g id="right-eye_3_">
			<circle id="right-eye_cornea" fill="#667B99" cx="49" cy="141" r="5"/>
			<circle id="right-eye_pupil" fill="#3D4A5C" cx="49" cy="141" r="2"/>
		</g>
	</g>
	<g id="monocle_1_">
		<g id="monocle-shadow">
			<rect id="monocle-shadow_handle_1_" x="56" y="141" fill="#667B99" width="1" height="1"/>
			<rect id="monocle-shadow_chain_1_" x="57" y="168" fill="#667B99" width="2" height="2"/>
			<path id="monocle-shadow_bottom_1_" fill="#667B99" d="M49,148c-3.691,0-6.716-2.874-6.975-6.5C42.014,141.666,42,141.831,42,142
				c0,3.86,3.14,7,7,7c2.785,0,5.189-1.639,6.315-4H59v-1h-3.685C54.189,146.361,51.785,148,49,148z"/>
			<path id="monocle-shadow_top_1_" fill="#52637A" d="M49,136c-2.761,0-5,2.239-5,5c0,0.171,0.034,0.333,0.05,0.5
				c0.254-2.523,2.359-4.5,4.95-4.5s4.695,1.977,4.95,4.5c0.017-0.167,0.05-0.329,0.05-0.5C54,138.239,51.761,136,49,136z"/>
		</g>
		<rect id="monocle-chain_1_" x="57" y="142" fill="#BD350F" width="2" height="26"/>
		<path id="monocle-ring" fill="#BD350F" d="M55.705,139c-0.863-2.888-3.541-5-6.705-5c-3.86,0-7,3.14-7,7
			c0,0.169,0.014,0.334,0.025,0.5c0.258,3.626,3.284,6.5,6.975,6.5c2.785,0,5.189-1.639,6.315-4H59v-4v-1H55.705z M53.95,141.5
			c-0.254,2.523-2.359,4.5-4.95,4.5s-4.695-1.977-4.95-4.5c-0.017-0.167-0.05-0.329-0.05-0.5c0-2.761,2.239-5,5-5s5,2.239,5,5
			C54,141.171,53.966,141.333,53.95,141.5z M57,142h-1v-1h1V142z"/>
		<circle id="monocle-glare_1_" fill="#8596AD" cx="48" cy="139" r="1"/>
	</g>
	<g id="hat">
		<polygon id="hat-main" fill="#29313D" points="70,123 60,60 70,30 30,20 30,123 25,123 25,125 75,125 75,123 		"/>
		<polygon id="star-top" fill="#D43B11" points="60,35 58.5,32 57,35 54,36.5 57,38 58.5,47 60,38 63,36.5 		"/>
	</g>
</g>
<path id="spacesuit_1_" fill="#52637A" d="M92.839,123.632C91.14,122.732,90,121.051,90,119.128V23.094C90,10.34,79.66,0,66.906,0
	H44.641C25.509,0,10,15.509,10,34.641v132.265c0,8.873,5.006,16.574,12.347,20.44c4.661,2.454,7.653,7.206,7.653,12.473V200h50
	v-0.807c0-4.57,2.095-8.878,5.665-11.732c2.642-2.112,4.335-5.36,4.335-9.008v-31.581c0-1.923,1.14-3.604,2.839-4.505
	C95.24,141.095,97,136.541,97,133C97,129.459,95.24,124.905,92.839,123.632z M73.876,180H32.247C25.483,180,20,174.517,20,167.753
	V34.495C20,20.967,30.967,10,44.495,10h17.134C71.775,10,80,18.225,80,28.371v96.792c-2.312,1.832-3.8,4.658-3.8,7.837
	s1.488,6.005,3.8,7.837v33.039C80,177.258,77.258,180,73.876,180z"/>
<circle id="visor-circle" fill="#3D4A5C" cx="86.2" cy="133" r="6.25"/>
<ellipse id="helmet-reflection-big" fill="#667B99" cx="28" cy="24" rx="5" ry="7"/>
<ellipse id="helmet-reflection-small" fill="#667B99" cx="22" cy="17" rx="2" ry="2.8"/>
</svg>
