<?xml version="1.0" encoding="utf-8"?>
<!DOCTYPE svg PUBLIC "-//W3C//DTD SVG 1.1//EN" "http://www.w3.org/Graphics/SVG/1.1/DTD/svg11.dtd">
<svg 
	version="1.1" 
	id="stars" 
	xmlns="http://www.w3.org/2000/svg" 
	xmlns:xlink="http://www.w3.org/1999/xlink" 
	x="0px" 
	y="0px"
	viewBox="0 0 200 200" 
	enable-background="new 0 0 200 200" 
	xml:space="preserve"
	>
	<polygon 
		id="star1" 
		fill="#52637A" 
		points="6,4 5,2 4,4 2,5 4,6 5,8 6,6 8,5 "
		/>
	<polygon 
		id="star2" 
		fill="#52637A" 
		points="143,5 142,3 141,5 139,6 141,7 142,9 143,7 145,6 
		"/>
	<polygon 
		id="star3" 
		fill="#52637A" 
		points="26,16 25,14 24,16 22,17 24,18 25,20 26,18 28,17 
		"/>
	<polygon 
		id="star4" 
		fill="#52637A" 
		points="66,13 65,11 64,13 62,14 64,15 65,17 66,15 68,14 
		"/>
	<polygon 
		id="star5" 
		fill="#52637A" 
		points="124,15 123,13 122,15 120,16 122,17 123,19 124,17 126,16 
		"/>
	<polygon 
		id="star6" 
		fill="#52637A" 
		points="40,28 39,26 38,28 36,29 38,30 39,32 40,30 42,29 
		"/>
	<polygon 
		id="star7" 
		fill="#52637A" 
		points="177,29 176,27 175,29 173,30 175,31 176,33 177,31 179,30 
		"/>
	<polygon 
		id="star8" 
		fill="#52637A" 
		points="14,39 13,37 12,39 10,40 12,41 13,43 14,41 16,40 
		"/>
	<polygon 
		id="star9" 
		fill="#52637A" 
		points="86,44 85,42 84,44 82,45 84,46 85,48 86,46 88,45 
		"/>
	<polygon 
		id="star10" 
		fill="#52637A" 
		points="136,44 135,42 134,44 132,45 134,46 135,48 136,46 138,45 
		"/>
	<polygon 
		id="star11" 
		fill="#52637A" 
		points="48,63 47,61 46,63 44,64 46,65 47,67 48,65 50,64 
		"/>
	<polygon 
		id="star12" 
		fill="#52637A" 
		points="170,68 169,66 168,68 166,69 168,70 169,72 170,70 172,69 
		"/>
	<polygon 
		id="star13" 
		fill="#52637A" 
		points="16,76 15,74 14,76 12,77 14,78 15,80 16,78 18,77 
		"/>
	<polygon 
		id="star14" 
		fill="#52637A" 
		points="48,78 47,76 46,78 44,79 46,80 47,82 48,80 50,79 
		"/>
	<polygon 
		id="star15" 
		fill="#52637A" 
		points="88,81 87,79 86,81 84,82 86,83 87,85 88,83 90,82 
		"/>
	<polygon 
		id="star16" 
		fill="#52637A" 
		points="121,82 120,80 119,82 117,83 119,84 120,86 121,84 123,83 
		"/>
	<polygon 
		id="star17" 
		fill="#52637A" 
		points="185,79 184,77 183,79 181,80 183,81 184,83 185,81 187,80 
		"/>
	<polygon 
		id="star18" 
		fill="#52637A" 
		points="31,87 30,85 29,87 27,88 29,89 30,91 31,89 33,88 
		"/>
	<polygon 
		id="star19" 
		fill="#52637A" 
		points="68,90 67,88 66,90 64,91 66,92 67,94 68,92 70,91 
		"/>
	<polygon 
		id="star20" 
		fill="#52637A" 
		points="166,89 165,87 164,89 162,90 164,91 165,93 166,91 168,90 
		"/>
	<polygon 
		id="star21" 
		fill="#52637A" 
		points="197,95 196,93 195,95 193,96 195,97 196,99 197,97 199,96 
		"/>
	<polygon 
		id="star22" 
		fill="#52637A" 
		points="50,100 49,98 48,100 46,101 48,102 49,104 50,102 52,101 
		"/>
	<polygon 
		id="star23" 
		fill="#52637A" 
		points="155,106 154,104 153,106 151,107 153,108 154,110 155,108 157,107 
		"/>
	<polygon 
		id="star24" 
		fill="#52637A" 
		points="110,111 109,109 108,111 106,112 108,113 109,115 110,113 112,112 
		"/>
	<polygon 
		id="star25" 
		fill="#52637A" 
		points="9,113 8,111 7,113 5,114 7,115 8,117 9,115 11,114 
		"/>
	<polygon 
		id="star26" 
		fill="#52637A" 
		points="178,118 177,116 176,118 174,119 176,120 177,122 178,120 180,119 
		"/>
	<polygon 
		id="star27" 
		fill="#52637A" 
		points="96,129 95,127 94,129 92,130 94,131 95,133 96,131 98,130 
		"/>
	<polygon 
		id="star28" 
		fill="#52637A" 
		points="32,141 31,139 30,141 28,142 30,143 31,145 32,143 34,142 
		"/>
	<polygon 
		id="star29" 
		fill="#52637A" 
		points="123,141 122,139 121,141 119,142 121,143 122,145 123,143 125,142 
		"/>
	<polygon 
		id="star30" 
		fill="#52637A" 
		points="158,142 157,140 156,142 154,143 156,144 157,146 158,144 160,143 
		"/>
	<polygon 
		id="star31" 
		fill="#52637A" 
		points="58,150 57,148 56,150 54,151 56,152 57,154 58,152 60,151 
		"/>
	<polygon 
		id="star32" 
		fill="#52637A" 
		points="73,161 72,159 71,161 69,162 71,163 72,165 73,163 75,162 
		"/>
	<polygon 
		id="star33" 
		fill="#52637A" 
		points="163,162 162,160 161,162 159,163 161,164 162,166 163,164 165,163 
		"/>
	<polygon 
		id="star34" 
		fill="#52637A" 
		points="190,166 189,164 188,166 186,167 188,168 189,170 190,168 192,167 
		"/>
	<polygon 
		id="star35" 
		fill="#52637A" 
		points="103,172 102,170 101,172 99,173 101,174 102,176 103,174 105,173 
		"/>
	<polygon 
		id="star36" 
		fill="#52637A" 
		points="138,174 137,172 136,174 134,175 136,176 137,178 138,176 140,175 
		"/>
	<polygon 
		id="star37" 
		fill="#52637A" 
		points="22,178 21,176 20,178 18,179 20,180 21,182 22,180 24,179 
		"/>
	<polygon 
		id="star38" 
		fill="#52637A" 
		points="58,181 57,179 56,181 54,182 56,183 57,185 58,183 60,182 
		"/>
	<polygon 
		id="star39" 
		fill="#52637A" 
		points="99,194 98,192 97,194 95,195 97,196 98,198 99,196 101,195 
		"/>
	<polygon 
		id="star40" 
		fill="#52637A" 
		points="162,192 161,190 160,192 158,193 160,194 161,196 162,194 164,193 
		"/>
</svg>
