<?xml version="1.0" encoding="utf-8"?>
<!-- Generator: Adobe Illustrator 18.1.0, SVG Export Plug-In . SVG Version: 6.00 Build 0)  -->
<!DOCTYPE svg PUBLIC "-//W3C//DTD SVG 1.1//EN" "http://www.w3.org/Graphics/SVG/1.1/DTD/svg11.dtd">
<svg version="1.1" xmlns="http://www.w3.org/2000/svg" xmlns:xlink="http://www.w3.org/1999/xlink" x="0px" y="0px"
	 viewBox="0 0 24.9 39.1" enable-background="new 0 0 24.9 39.1" xml:space="preserve">
<g id="body">
	<g>
		<g>
			<path fill="#3D3A3B" d="M19,15c0.2,0.3,2.5,3.8,2.2,5.3c-0.3,1.1-1.6,3.9-2.4,5.3c-0.3,0.5-0.5,0.9-0.5,1
				c-0.1,0.2-0.8-0.1-0.8-0.1s0.7-1,1.3-2.3c1.2-2.4,2.5-6,0.3-7.7c-0.3,1.1-0.3,4.1-0.2,7.6c0,0.5,0,1,0,1.4
				c0.1,5.1,0.5,10.4,0.6,10.5c0.2,0.2,0.4,0,1,0.7c0.6,0.7-2,0.4-2.2-0.5c-0.2-3.9,0.7-8-5.3-8.4c-6-0.4-5.1,8.8-5.7,9.1
				c-5,0.2-0.6-1.1-0.5-1.1C8,34,7.8,18,7.8,18l0.6-0.3c-0.9,0.1-0.6,0.4-1.4,1.7c-2.1,3-2.9,2.7-3.2,2.6c-1.5-0.6-1-3.1-1-3.1
				s1.4-0.6,1.4-0.6c0,0,0,0.9,0,0.9c-0.1,1.8,3-2.2,3-2.2c0.7-0.8,1.1-1.7,1.3-1.9L19,15z"/>
		</g>
		<g>
			<path d="M20,37.3c-0.6,0-1.9-0.3-2-1c0,0,0,0,0,0c0-0.5,0-1,0-1.5c0-3.4-0.1-6.3-5.1-6.6c-0.1,0-0.3,0-0.4,0
				c-4,0-4.5,4.8-4.7,7.4c-0.1,1.1-0.2,1.5-0.4,1.6c0,0,0,0-0.1,0c-0.3,0-0.6,0-0.9,0c-1.2,0-1.6-0.1-1.7-0.3
				c-0.1-0.1-0.1-0.2,0-0.3c0.2-0.4,1.5-0.7,1.9-0.9c0.9-1.6,1-12,1-16.9c-0.1,0.2-0.2,0.4-0.4,0.7c-1.8,2.5-2.6,2.8-3.1,2.8
				c-0.1,0-0.2,0-0.3,0l0,0c0,0,0,0,0,0c-1.6-0.7-1.1-3.2-1.1-3.3c0-0.1,0.1-0.1,0.1-0.2c0.6-0.2,1.2-0.5,1.3-0.6
				c0,0,0.1-0.1,0.2-0.1c0.1,0,0.2,0.1,0.2,0.1c0,0.1,0,0.1,0,0.2c0,0.1,0,0.5,0,0.9c0,0,0,0,0,0c0,0.1,0,0.2,0,0.2
				c0.3-0.1,1.4-1,2.6-2.6C7.5,16.4,7.7,16,8,15.6c0.2-0.3,0.3-0.5,0.4-0.6c0,0,0.1-0.1,0.1-0.1L19,14.7c0.1,0,0.2,0,0.2,0.1l0,0
				c0.8,1.2,2.5,4,2.2,5.5c-0.3,1.3-2,4.5-2.4,5.3c0.1,4.8,0.4,9.7,0.6,10.3c0,0,0,0,0.1,0c0.2,0.1,0.5,0.2,0.9,0.6
				c0.2,0.2,0.1,0.4,0.1,0.5C20.6,37.2,20.3,37.3,20,37.3z M18.4,36.2c0.1,0.3,0.9,0.6,1.5,0.6c0.1,0,0.1,0,0.2,0
				c-0.3-0.3-0.5-0.4-0.6-0.5c-0.1,0-0.2-0.1-0.3-0.2c-0.1-0.1-0.1-0.2-0.3-3.5c-0.1-1.9-0.2-4.2-0.3-6.2c-0.1,0.1-0.1,0.2-0.2,0.3
				c-0.1,0.1-0.2,0.2-0.4,0.2c-0.3,0-0.7-0.1-0.7-0.1c-0.1,0-0.1-0.1-0.1-0.2c0-0.1,0-0.1,0-0.2c0,0,0.7-1,1.3-2.3l0,0
				c-0.1-4.1,0-6.6,0.2-7.6c0-0.1,0.1-0.1,0.1-0.2c0.1,0,0.2,0,0.2,0c1.3,0.9,2.3,3.1-0.1,7.9c0,0.1,0,0.3,0,0.4
				c0.8-1.7,1.7-3.6,1.9-4.4c0.2-1-0.9-3.2-2.1-5L8.7,15.4c-0.1,0.1-0.2,0.3-0.3,0.5c-0.2,0.4-0.5,0.9-0.9,1.3
				c-0.5,0.6-2.2,2.8-3,2.8c0,0,0,0,0,0c-0.1,0-0.2,0-0.3-0.1C4,19.7,4,19.5,4,19.3c0-0.2,0-0.4,0-0.5c-0.2,0.1-0.5,0.2-1,0.4
				c-0.1,0.5-0.3,2.2,0.8,2.7l0,0c0.1,0,0.1,0,0.2,0c0.6,0,1.5-0.9,2.7-2.6c0.3-0.5,0.5-0.8,0.6-1c0.2-0.5,0.3-0.7,1-0.7
				c0.1,0,0.2,0.1,0.2,0.2c0,0.1,0,0.2-0.1,0.3l-0.4,0.2c0,1.4,0.1,10-0.4,14.8c0.5-2.5,1.7-5.3,4.9-5.3c0.1,0,0.3,0,0.4,0
				c5.4,0.4,5.5,3.8,5.5,7.1C18.4,35.3,18.4,35.8,18.4,36.2z M5.3,36.7c0.2,0,0.5,0.1,1.1,0.1c0.2,0,0.5,0,0.8,0
				c0.1-0.2,0.1-0.7,0.2-1.2c0-0.2,0-0.4,0.1-0.6C7.2,35.4,7.1,35.8,7,36c0,0.1-0.1,0.1-0.2,0.1C6.6,36.2,5.7,36.5,5.3,36.7z
				 M17.8,26.4c0.1,0,0.2,0,0.3,0c0,0,0,0,0,0c0.1-0.1,0.2-0.4,0.5-0.9c0-0.2,0-0.3,0-0.4C18.2,25.7,17.9,26.1,17.8,26.4z M19.1,17
				c-0.2,1-0.2,3.2-0.2,6.2C20.5,19.6,20,17.9,19.1,17z"/>
		</g>
	</g>
	<g>
		<g>
			<path d="M17.6,28.3c-0.1,0-0.1,0-0.2,0c-0.4-0.1-0.7-0.3-0.8-0.7c-0.1-0.3,0-0.7,0.3-1c0.1-0.1,0.1-0.1,0.2-0.1l1.2,0.3
				c0.1,0,0.2,0.1,0.2,0.3C18.5,27.6,18.2,28.3,17.6,28.3z M17.2,27.1c-0.1,0.1-0.2,0.3-0.1,0.4c0,0.2,0.2,0.3,0.5,0.4
				c0,0,0,0,0.1,0c0.2,0,0.4-0.4,0.5-0.6L17.2,27.1z"/>
		</g>
	</g>
	<g>
		<g>
			<path d="M7.7,25.6c0,0,4.8,0.7,11,0.1l0-0.3c0,0-10.7,0.5-11-0.1C7.8,25.3,7.7,25.6,7.7,25.6z"/>
		</g>
		<g>
			<path d="M13.5,26.1C13.5,26.1,13.5,26.1,13.5,26.1c-3.4,0-5.7-0.3-5.8-0.3c-0.1,0-0.1,0-0.2-0.1c0-0.1-0.1-0.1,0-0.2
				c0-0.1,0-0.2,0.1-0.2c0-0.1,0-0.1,0.1-0.2C7.8,25,7.9,25,8,25.1c0,0,0,0,0,0c0.1,0.1,0.7,0.2,3.3,0.2c3.2,0,7.4-0.2,7.4-0.2
				c0.1,0,0.2,0.1,0.2,0.2l0,0.3c0,0.1-0.1,0.2-0.2,0.2C17.1,26,15.3,26.1,13.5,26.1z"/>
		</g>
	</g>
	<g>
		<g>
			<path d="M8.2,15.8c0.1,0.4,1.5,6.4,0.4,9.7C8.8,25.5,9,25.6,9,25.6s1.3-8.9-0.6-10.2C8.3,15.6,8.2,15.8,8.2,15.8z"/>
		</g>
		<g>
			<path d="M9,25.8C9,25.8,9,25.8,9,25.8l-0.5-0.1c-0.1,0-0.1-0.1-0.2-0.1c0-0.1,0-0.1,0-0.2c1.1-3-0.1-8.5-0.4-9.5l0,0
				c0-0.1,0-0.1,0-0.2c0,0,0.1-0.2,0.2-0.4c0-0.1,0.1-0.1,0.2-0.1c0.1,0,0.1,0,0.2,0c0.9,0.6,1.2,2.5,1.1,5.8
				c-0.1,2.4-0.4,4.6-0.4,4.6c0,0.1,0,0.1-0.1,0.2C9.1,25.8,9,25.8,9,25.8z M8.4,15.8c0.2,0.7,0.6,2.6,0.7,4.8
				C9.2,17.5,8.8,16.3,8.4,15.8C8.5,15.8,8.5,15.8,8.4,15.8z"/>
		</g>
	</g>
	<g>
		<g>
			<path d="M9.9,16.3c0,0,0.7,8.5,0.2,9.3c0.3,0.2,0.4,0,0.4,0s0.7-7.6-0.3-9.1C10.1,16.3,9.9,16.3,9.9,16.3"/>
		</g>
		<g>
			<path d="M10.4,26L10.4,26c-0.1,0-0.2,0-0.4-0.1c-0.1-0.1-0.1-0.2-0.1-0.3c0.3-0.5,0.1-5.1-0.3-9.2c0-0.1,0.1-0.2,0.2-0.3
				c0,0,0,0,0.1,0c0.2,0,0.4,0.1,0.5,0.3c1,1.6,0.3,8.9,0.3,9.2c0,0,0,0,0,0.1C10.7,25.8,10.6,26,10.4,26z M10.2,16.9
				c0.1,1.2,0.2,3.3,0.3,5.2C10.6,20.1,10.5,17.9,10.2,16.9z"/>
		</g>
	</g>
	<g>
		<g>
			<path d="M11.4,17.6c0.1,0.5-0.1,7.9-0.3,8.1c-0.2,0.2,0.5,0,0.5,0s0.3-6.8,0-7.8C11.2,16.8,11.4,17.6,11.4,17.6z"/>
		</g>
		<g>
			<path d="M11.1,26C11.1,26,11.1,26,11.1,26c-0.2,0-0.3-0.1-0.3-0.2c0-0.1,0-0.2,0.1-0.3c0.2-0.7,0.4-7.3,0.3-7.9
				c-0.1-0.3-0.1-0.4,0-0.5c0-0.1,0.1-0.1,0.2-0.1c0.2,0,0.2,0.1,0.4,0.7c0.4,1.1,0.1,7.6,0,7.9c0,0.1-0.1,0.2-0.2,0.2
				C11.6,25.9,11.3,26,11.1,26z M11.4,25.4C11.4,25.4,11.4,25.5,11.4,25.4C11.4,25.5,11.4,25.5,11.4,25.4
				C11.4,25.5,11.4,25.4,11.4,25.4z"/>
		</g>
	</g>
	<g>
		<g>
			<path d="M14.5,19.1c0,0-0.4,5.8-0.2,6.3c0.2,0.4,0.4,0.1,0.4,0.1l0-6.8L14.5,19.1z"/>
		</g>
		<g>
			<path d="M14.5,25.9C14.5,25.9,14.5,25.9,14.5,25.9c-0.1,0-0.3-0.1-0.4-0.4c-0.2-0.5,0.1-5,0.2-6.4c0,0,0-0.1,0-0.1l0.2-0.4
				c0-0.1,0.2-0.2,0.3-0.1c0.1,0,0.2,0.1,0.2,0.2l0,6.8c0,0,0,0.1,0,0.1C14.8,25.7,14.7,25.9,14.5,25.9z"/>
		</g>
	</g>
	<g>
		<g>
			<path d="M15.6,17.4c0,0,0.8,7.7,0.2,8.1c-0.6,0.4,0.3,0.2,0.3,0.2s0.6-7.7-0.2-8.7C15.1,16,15.6,17.4,15.6,17.4z"/>
		</g>
		<g>
			<path d="M15.9,26L15.9,26c-0.2,0-0.4-0.1-0.4-0.2c-0.1-0.2,0.2-0.4,0.3-0.5c0.3-0.5,0-4.3-0.3-7.8c-0.3-0.7-0.2-0.8-0.1-0.9
				c0.1-0.1,0.1-0.1,0.2-0.1c0.2,0,0.3,0.1,0.6,0.5c0.9,1.1,0.4,8.1,0.3,8.8c0,0.1-0.1,0.2-0.2,0.2C16.2,26,16,26,15.9,26z
				 M15.9,17.4c0,0.3,0.2,1.6,0.3,3.1C16.1,19.2,16.1,18,15.9,17.4z"/>
		</g>
	</g>
	<g>
		<g>
			<path d="M17.1,16.1c0,0-0.5,9-0.2,9.4s0.6,0,0.6,0l0.3-9.8L17.1,16.1"/>
		</g>
		<g>
			<path d="M17.1,25.9C17.1,25.9,17.1,25.9,17.1,25.9c-0.1,0-0.3,0-0.5-0.2c-0.1-0.1-0.2-0.3,0-5c0.1-2.3,0.2-4.5,0.2-4.6
				c0-0.1,0-0.2,0.1-0.2l0.6-0.4c0.1,0,0.2,0,0.2,0c0.1,0,0.1,0.1,0.1,0.2l-0.3,9.8c0,0.1,0,0.1-0.1,0.2
				C17.6,25.7,17.4,25.9,17.1,25.9z M17.1,25.3C17.1,25.4,17.1,25.4,17.1,25.3L17.1,25.3c0.1,0,0.1,0,0.1,0l0.3-9.2l-0.2,0.1
				C17.1,19.6,16.9,24.8,17.1,25.3z"/>
		</g>
	</g>
	<g>
		<g>
			<path d="M18.9,15.2c0,0-1.5,9.9-0.8,10.2c0.7,0.3-0.4,0.1-0.4,0.1s0.5-10.1,0.7-10.1C18.5,15.4,18.9,15.2,18.9,15.2"/>
		</g>
		<g>
			<path d="M18.1,25.8c-0.2,0-0.5,0-0.5,0c-0.1,0-0.2-0.1-0.2-0.2c0,0,0.1-2.5,0.3-5c0.1-1.5,0.2-2.6,0.2-3.5c0-0.5,0.1-0.9,0.1-1.1
				c0-0.4,0.1-0.6,0.3-0.6c0.1,0,0.3-0.1,0.4-0.2c0.1,0,0.2,0,0.3,0c0.1,0.1,0.1,0.1,0.1,0.2c-0.7,4.5-1.2,9.4-0.9,9.9
				c0.2,0.1,0.4,0.2,0.4,0.4C18.5,25.8,18.2,25.8,18.1,25.8z M18.5,15.6c0,0.2-0.1,0.6-0.1,1.1C18.5,16.2,18.5,15.9,18.5,15.6
				C18.5,15.6,18.5,15.6,18.5,15.6z"/>
		</g>
	</g>
	<g>
		<g>
			<path fill="#FFFFFF" d="M9.2,15.7c0,0,4.5,3.5,4.4,4.2c-0.1,0.7-1.6,4.4-1.6,4.4s3.1-7.9,5.4-8.5C15.6,15.7,9.2,15.7,9.2,15.7z"
				/>
		</g>
		<g>
			<path d="M12,24.6C11.9,24.6,11.9,24.6,12,24.6c-0.2-0.1-0.3-0.2-0.2-0.3c0,0,0.2-0.4,0.4-1c0.7-1.8,1.2-3,1.2-3.4
				c0-0.4-2.3-2.4-4.3-4C9,15.8,9,15.7,9,15.6c0-0.1,0.1-0.2,0.2-0.2c0,0,0.4,0,1,0c2.1,0,5.8,0,7.1,0.1c0.1,0,0.2,0.1,0.2,0.2
				c0,0.1-0.1,0.2-0.2,0.2c-1.1,0.3-2.9,3.1-4.8,7.4c-0.2,0.6-0.4,1-0.4,1C12.2,24.5,12.1,24.6,12,24.6z M9.9,16
				c0.4,0.3,1.1,0.9,1.7,1.4c1.8,1.5,2.2,2.1,2.2,2.4c0.8-1.6,1.8-3,2.7-3.7C14.8,16,11.7,16,10.2,16C10.1,16,10,16,9.9,16z"/>
		</g>
	</g>
	<g>
		<g>
			<g>
				<path d="M14.2,21.2c0.5,0,0.5-0.7,0-0.7C13.7,20.5,13.7,21.2,14.2,21.2L14.2,21.2z"/>
			</g>
		</g>
	</g>
	<g>
		<g>
			<g>
				<path d="M13.8,22.2c0.5,0,0.5-0.7,0-0.7C13.3,21.5,13.3,22.2,13.8,22.2L13.8,22.2z"/>
			</g>
		</g>
	</g>
	<g>
		<g>
			<g>
				<path d="M13.2,23.4c0.5,0,0.5-0.7,0-0.7C12.7,22.6,12.7,23.4,13.2,23.4L13.2,23.4z"/>
			</g>
		</g>
	</g>
	<g>
		<g>
			<g>
				<path d="M12.5,24.5c0.5,0,0.5-0.7,0-0.7C12.1,23.8,12.1,24.5,12.5,24.5L12.5,24.5z"/>
			</g>
		</g>
	</g>
	<g>
		<g>
			<polygon fill="#FFFFFF" points="2.8,19 2.8,18.5 4.3,17.9 4.2,18.4 			"/>
		</g>
		<g>
			<path d="M2.8,19.1C2.8,19.1,2.8,19.1,2.8,19.1c-0.1,0-0.1-0.1-0.1-0.1l-0.1-0.5c0-0.1,0-0.1,0.1-0.1l1.5-0.6c0,0,0.1,0,0.1,0
				c0,0,0,0.1,0,0.1l-0.1,0.5c0,0,0,0.1-0.1,0.1L2.8,19.1C2.9,19.1,2.8,19.1,2.8,19.1z M2.9,18.5l0,0.3l1.2-0.5l0-0.2L2.9,18.5z"/>
		</g>
	</g>
	<g>
		<g>
			<path fill="#3D3A3B" d="M19,24.2c0,0-0.9,1.6-0.9,1.7c0,0.1,0.3-0.1,0.3-0.1l0.8-1.6L19,24.2z"/>
		</g>
	</g>
	<g>
		<g>
			<polygon fill="#FFFFFF" points="17.3,26.6 17.2,26.8 18.1,27 18.2,26.6 			"/>
		</g>
		<g>
			<path d="M18.1,27.2C18.1,27.2,18.1,27.2,18.1,27.2l-1-0.2c0,0-0.1,0-0.1-0.1c0,0,0-0.1,0-0.1l0.2-0.2c0,0,0.1-0.1,0.1-0.1
				c0,0,0,0,0,0l0.9,0c0,0,0.1,0,0.1,0c0,0,0,0.1,0,0.1l-0.1,0.5C18.2,27.1,18.2,27.2,18.1,27.2z M17.3,26.7l0.7,0.2l0-0.2
				L17.3,26.7L17.3,26.7z"/>
		</g>
	</g>
</g>
<g id="pipe">
	<g>
		<path fill="#603913" d="M0.5,16.2c-0.2,0-0.2-0.5-0.2-0.5l2.4-0.1l-0.4,1c0,0,3.6-0.1,4.2-0.8s0.2,0.5,0.1,0.5
			c-0.1,0-4.9,1.6-5.5,0.9C0.4,16.6,0.5,16.2,0.5,16.2z"/>
		<path d="M1.7,17.7c-0.4,0-0.7-0.1-0.8-0.2c-0.4-0.5-0.6-0.9-0.6-1.1C0.1,16.2,0,16,0,15.8c0-0.1,0-0.1,0-0.2
			c0-0.1,0.1-0.1,0.2-0.1l2.4-0.1c0.1,0,0.2,0,0.2,0.1c0,0.1,0.1,0.2,0,0.2l-0.3,0.6c2.3-0.1,3.4-0.5,3.6-0.7
			c0.2-0.2,0.3-0.3,0.5-0.3c0.1,0,0.2,0.1,0.3,0.2c0,0,0,0.1,0,0.2c0,0.1-0.1,0.8-0.4,0.9c0,0-0.2,0.1-0.4,0.1
			C5.2,17,2.9,17.7,1.7,17.7z M0.7,16.3c0,0,0,0.3,0.5,0.8c0,0,0.1,0.1,0.5,0.1c0.6,0,1.6-0.2,2.5-0.4c-0.8,0.1-1.6,0.1-1.9,0.1
			c-0.1,0-0.2,0-0.2-0.1c0-0.1-0.1-0.2,0-0.2l0.3-0.6L0.6,16c0,0,0,0,0,0C0.7,16.1,0.7,16.2,0.7,16.3L0.7,16.3z"/>
	</g>
	<g>
		<path d="M1.3,16.3c-0.1,0-0.2,0-0.2-0.1c0,0-0.1,0-0.1,0c-0.1,0-0.1-0.1-0.1-0.1C0.9,16,1,16,1,16c0,0,0.1,0,0.1,0
			c0.1,0,0.2,0.1,0.3,0c0.1,0,0.1,0,0.2,0.1c0,0.1,0,0.1-0.1,0.2C1.5,16.3,1.4,16.3,1.3,16.3z"/>
	</g>
</g>
<g id="hands">
	<g>
		<path fill="#FFF2E2" d="M1.8,17.3c-0.1,0-0.4,0.5-0.4,0.5l0.1,0.4l1.3,0.3L3.9,18l-0.3-0.8L1.8,17.3z"/>
		<path d="M2.8,18.7C2.7,18.7,2.7,18.7,2.8,18.7l-1.4-0.3c-0.1,0-0.2-0.1-0.2-0.2l-0.1-0.4c0-0.1,0-0.1,0-0.2
			c0.3-0.5,0.5-0.6,0.5-0.6c0,0,0,0,0.1,0l1.9-0.1c0.1,0,0.2,0.1,0.2,0.2l0.3,0.8c0,0.1,0,0.3-0.1,0.3L2.8,18.7
			C2.8,18.7,2.8,18.7,2.8,18.7z M1.7,18l1.1,0.2l0.9-0.3l-0.2-0.4l-1.6,0.1c-0.1,0.1-0.1,0.2-0.2,0.3L1.7,18z"/>
	</g>
	<g>
		<path fill="#FFF2E2" d="M2.7,18.4c-0.2-0.1-1-0.3-1.3,0c0,0-0.7-0.5-0.1-1.4c0.2-0.1,0.2,0,0.2,0.1c0,0.1,0.1,0.9,0.2,0.9
			C1.7,18.1,2.7,18.4,2.7,18.4z"/>
		<path d="M1.3,18.6C1.3,18.6,1.3,18.6,1.3,18.6c-0.1,0-0.1,0-0.1-0.1c0,0,0,0,0,0c-0.6-0.6-0.3-1.2,0-1.6c0,0,0,0,0,0
			c0.1-0.1,0.2-0.1,0.3,0c0,0.1,0.1,0.1,0,0.3c0,0.1,0.1,0.7,0.1,0.8c0,0,0.2,0.1,0.8,0.3c0.1,0,0.2,0.1,0.3,0.1
			c0.1,0,0.1,0.1,0.1,0.1c0,0.1-0.1,0.1-0.1,0.1c0,0-0.1,0-0.3-0.1c-0.1,0-0.3-0.1-0.5-0.1C1.7,18.4,1.5,18.4,1.3,18.6
			C1.4,18.6,1.4,18.6,1.3,18.6z M1.3,17.1c-0.4,0.6-0.1,1,0,1.2c0.1,0,0.1-0.1,0.2-0.1c0,0,0,0,0,0C1.3,18.1,1.3,17.2,1.3,17.1z"/>
	</g>
	<g>
		<path fill="#FFF2E2" d="M1.4,17.8c-0.1-0.2-0.2-1.7,0.7-2c0.3,0,0.5,0.1,0.4,0.3c-0.1,0.2-0.5,1.2-0.7,1.4
			C1.7,17.7,1.4,17.8,1.4,17.8z"/>
		<path d="M1.4,18.1c0,0-0.1,0-0.1,0c-0.1,0-0.1-0.1-0.1-0.1c-0.1-0.2-0.1-1.1,0.2-1.7c0.2-0.3,0.4-0.5,0.6-0.5c0,0,0,0,0,0
			c0.3,0,0.5,0.1,0.6,0.2c0.1,0.1,0.1,0.3,0,0.4l0,0c-0.4,1.1-0.6,1.3-0.7,1.4C1.8,17.9,1.5,18.1,1.4,18.1
			C1.5,18.1,1.5,18.1,1.4,18.1z M2.1,16.1c-0.1,0-0.2,0.1-0.3,0.3c-0.2,0.3-0.2,0.8-0.2,1.1c0,0,0.1,0,0.1-0.1c0,0,0.2-0.2,0.6-1.3
			l0,0C2.2,16.1,2.2,16.1,2.1,16.1z"/>
	</g>
	<g>
		<path fill="#FFF2E2" d="M2.2,16.2C2.4,16.1,3,15.9,3,16.1s-0.3,1.2-0.4,1.4C2.5,17.7,2.3,18,2.1,18C2,17.9,2.1,16.3,2.2,16.2"/>
		<path d="M2.2,18.2c-0.1,0-0.1,0-0.2,0c-0.1-0.1-0.2-0.2-0.2-1.1c0-0.1,0-0.8,0.1-0.9c0,0,0,0,0,0C2,16,2,16,2.1,16
			c0.3-0.1,0.8-0.3,1-0.1c0.1,0.1,0.1,0.2,0.1,0.3c0,0.3-0.3,1.3-0.4,1.5C2.8,17.6,2.6,18.1,2.2,18.2C2.2,18.2,2.2,18.2,2.2,18.2z
			 M2.4,16.4c0,0.2-0.1,0.8-0.1,1.2c0.1-0.1,0.1-0.1,0.1-0.2c0.1-0.1,0.3-0.8,0.3-1.1C2.7,16.3,2.5,16.3,2.4,16.4z"/>
	</g>
	<g>
		<path fill="#FFF2E2" d="M3,16.3c0.1,0,0.5-0.4,0.5-0.2c0,0.2,0.2,0.9,0.1,1.2c-0.1,0.3-0.2,0.6-0.3,0.6S3,17.7,2.9,17.6
			C2.8,17.5,3,16.3,3,16.3z"/>
		<path d="M3.2,18.1c-0.3,0-0.4-0.2-0.5-0.4c0-0.1-0.1-0.2,0-1.4c0-0.1,0.1-0.2,0.1-0.2c0,0,0.1,0,0.1-0.1c0.2-0.1,0.3-0.2,0.5-0.2
			c0.2,0,0.3,0.1,0.3,0.3c0.1,0.6,0.1,1.1,0.1,1.3l0,0.1C3.7,17.8,3.5,18.1,3.2,18.1z M3.1,17.5c0,0,0.1,0.1,0.1,0.1
			c0-0.1,0.1-0.2,0.1-0.3l0-0.1c0-0.1,0-0.3,0-0.8c0,0,0,0,0,0c0,0,0,0-0.1,0C3.1,16.9,3.1,17.4,3.1,17.5z"/>
	</g>
	<g>
		<path fill="#FFF2E2" d="M3.6,16.7c0.1-0.1,0.4,0,0.5,0.1c0.1,0.1,0.1,0.2,0,0.4s-0.2,0.5,0,0.5c0.1,0,0.1,0.2,0.1,0.2
			S3.9,18.1,3.7,18c-0.1-0.1-0.3-0.4-0.3-0.6C3.5,17.3,3.6,16.7,3.6,16.7z"/>
		<path d="M3.8,18.3c-0.1,0-0.1,0-0.2,0c-0.2-0.1-0.5-0.5-0.4-0.8c0-0.2,0.2-0.8,0.2-0.8c0-0.1,0.1-0.1,0.1-0.1
			c0.1,0,0.1-0.1,0.2-0.1c0.2,0,0.4,0.1,0.5,0.2c0.2,0.2,0.1,0.4,0,0.6l0,0c-0.1,0.1-0.1,0.2-0.1,0.3c0.1,0.1,0.2,0.3,0.2,0.4
			c0,0.1-0.1,0.2-0.1,0.2C4.2,18.2,4,18.3,3.8,18.3z M3.8,16.9c-0.1,0.2-0.1,0.5-0.1,0.6c0,0.1,0.1,0.2,0.1,0.3
			c-0.1-0.1,0-0.3,0.1-0.6l0,0c0-0.1,0-0.1,0.1-0.2C3.9,16.9,3.9,16.9,3.8,16.9z"/>
	</g>
</g>
<g id="head">
	<g>
		<g>
			<path fill="#FFF2E2" d="M10.1,11.9c-0.8,0.4-3.9,1.4-4.6,0C4.8,10.4,5.9,8,7.9,4.2c1.7-2.6,3.1-3.6,4.7-3.8
				C14.2,0.3,16.9,0.8,18,3c1.1,2.2,1.7,4.2,1.8,5.6c0,1.5,0,5.8-0.8,6.4c-0.7,0.6-5,3.2-8.9,1.4c-1.2-0.7-1.6-1-1.8-2.9
				c-0.1-0.8-0.2-0.9-0.2-0.9L10.1,11.9z"/>
		</g>
		<g>
			<path d="M13,17.2c-1.1,0-2.1-0.2-3-0.6c0,0,0,0,0,0c-1.3-0.7-1.7-1.2-1.9-3.1c0-0.4-0.1-0.6-0.1-0.7c-0.3,0-0.6,0.1-0.8,0.1
				c0,0,0,0,0,0c-0.9,0-1.5-0.3-1.8-0.9c-0.8-1.6,0.4-4,2.4-7.9c0,0,0,0,0,0c1.6-2.5,3-3.7,4.9-3.9c0.2,0,0.4,0,0.6,0
				c0.9,0,3.8,0.2,5,2.7c1.2,2.4,1.8,4.3,1.8,5.7c0,0.1,0.1,5.8-0.8,6.6C19.1,15.2,16.4,17.2,13,17.2z M10.2,16.2
				c0.9,0.4,1.8,0.6,2.8,0.6c2.7,0,5.2-1.5,5.9-2c0.5-0.4,0.7-3.9,0.7-6.2c0-1.3-0.6-3.2-1.8-5.5c-1.1-2.2-3.7-2.4-4.5-2.4
				c-0.2,0-0.4,0-0.6,0C11.4,0.8,10,1.4,8.1,4.4C6.2,8,5,10.4,5.7,11.8c0.2,0.4,0.7,0.6,1.4,0.6c0,0,0,0,0,0c0.3,0,0.7,0,1.2-0.1
				l1.8-0.6c0.1,0,0.2,0,0.3,0.1c0,0.1,0,0.2-0.1,0.3c-0.3,0.1-1,0.4-1.8,0.6l0,0c0,0.1,0.1,0.4,0.1,0.7
				C8.7,15.3,9.1,15.6,10.2,16.2z"/>
		</g>
	</g>
	<g>
		<g>
			<circle fill="#C5BC2F" cx="12.5" cy="6.8" r="1.9"/>
		</g>
		<g>
			<path d="M12.5,8.9c-1.1,0-2-0.9-2-2s0.9-2,2-2s2,0.9,2,2S13.6,8.9,12.5,8.9z M12.5,5.1c-1,0-1.8,0.8-1.8,1.8s0.8,1.8,1.8,1.8
				s1.8-0.8,1.8-1.8S13.5,5.1,12.5,5.1z"/>
		</g>
	</g>
	<g>
		<g>
			<path d="M11.2,15.9c-0.3,0-0.7-0.2-0.7-0.5c0-0.1,0-0.1,0.1-0.1c0.1,0,0.1,0,0.1,0.1c0,0.1,0.3,0.3,0.5,0.3
				c0.2,0,0.3-0.1,0.4-0.3c0,0,0-0.1,0.1-0.1c0,0,0.1,0,0.1,0c0,0,0.4,0.3,0.9,0.3c0.2,0,0.4-0.2,0.6-0.5c0-0.1,0.1-0.1,0.2,0
				c0.1,0,0.1,0.1,0,0.2c-0.2,0.3-0.5,0.5-0.8,0.6c-0.4,0-0.7-0.1-0.9-0.3C11.6,15.7,11.4,15.9,11.2,15.9
				C11.2,15.9,11.2,15.9,11.2,15.9z"/>
		</g>
	</g>
	<g>
		<g>
			<path d="M7,11.5c0,0-0.1,0-0.1-0.1c0-0.1,0-0.1,0.1-0.2c0.4-0.2,2.2-1.1,2.9-0.7c0.2,0.1,0.2,0.2,0.2,0.4c0,0.1,0,0.1-0.1,0.1
				c-0.1,0-0.1,0-0.1-0.1c0-0.1,0-0.2-0.1-0.2C9.3,10.5,7.8,11.1,7,11.5C7.1,11.5,7,11.5,7,11.5z"/>
		</g>
	</g>
	<g>
		<g>
			<path d="M17.2,9.8c0,0-0.1,0-0.1-0.1c0-0.1,0-0.1,0-0.2c0.2-0.1,0.3-0.3,0.3-0.5c0-0.4-0.6-0.9-0.8-1c-0.1,0-0.1-0.1-0.1-0.2
				c0-0.1,0.1-0.1,0.2-0.1C17,8,17.6,8.6,17.7,9.1C17.7,9.3,17.6,9.6,17.2,9.8C17.2,9.8,17.2,9.8,17.2,9.8z"/>
		</g>
	</g>
	<g>
		<g>
			<path d="M11,12.9c-0.1,0-0.1,0-0.1-0.1c0-0.1,0-0.1,0.1-0.1l0.5,0l0.2-0.2c0,0,0.1-0.1,0.1,0c0,0,0.3,0.1,0.5,0.2
				c0.1,0,0.1,0.1,0.1,0.1c0,0.1-0.1,0.1-0.1,0.1c-0.2,0-0.4-0.1-0.5-0.2l-0.1,0.2c0,0-0.1,0-0.1,0L11,12.9C11,12.9,11,12.9,11,12.9
				z"/>
		</g>
	</g>
	<g>
		<g>
			<g>
				<path d="M11.3,13.6c0,0.1,0,0.2,0,0.3c0,0.1,0.1,0,0.1-0.1c0-0.1,0-0.1,0-0.2C11.4,13.5,11.3,13.5,11.3,13.6L11.3,13.6z"/>
			</g>
		</g>
	</g>
	<g>
		<g>
			<g>
				<path d="M11.4,13.6c0,0,0,0.1,0,0.1c0,0.1,0.1,0.1,0.1,0C11.6,13.6,11.6,13.6,11.4,13.6C11.5,13.4,11.4,13.5,11.4,13.6
					L11.4,13.6z"/>
			</g>
		</g>
	</g>
	<g>
		<g>
			<g>
				<path d="M11.6,13.6c0,0.1,0,0.1,0,0.2c0,0.1,0.1,0,0.1-0.1c0,0,0-0.1,0-0.1C11.7,13.5,11.6,13.5,11.6,13.6L11.6,13.6z"/>
			</g>
		</g>
	</g>
	<g>
		<g>
			<g>
				<path d="M11.8,13.5c0,0.1,0,0.1,0.1,0.2c0.1,0.1,0.1,0,0.1-0.1c0,0,0-0.1,0-0.1C11.9,13.4,11.8,13.4,11.8,13.5L11.8,13.5z"/>
			</g>
		</g>
	</g>
	<g>
		<g>
			<g>
				<path d="M12,13.5c0,0,0,0.1,0.1,0.1c0,0.1,0.1,0.1,0.1,0c0-0.1,0-0.1-0.1-0.2C12.1,13.4,12,13.4,12,13.5L12,13.5z"/>
			</g>
		</g>
	</g>
	<g>
		<g>
			<g>
				<path d="M12.2,13.5c0,0,0,0.1,0,0.1c0,0.1,0.1,0.1,0.1,0c0-0.1,0-0.3-0.1-0.3C12.2,13.4,12.2,13.5,12.2,13.5L12.2,13.5z"/>
			</g>
		</g>
	</g>
	<g>
		<g>
			<g>
				<path d="M12.7,1.4c0-0.2,0-0.3,0-0.5c0-0.1-0.1-0.1-0.1,0c0,0.2-0.1,0.3,0,0.5C12.6,1.5,12.7,1.5,12.7,1.4L12.7,1.4z"/>
			</g>
		</g>
	</g>
	<g>
		<g>
			<g>
				<path d="M12.2,1c0,0.2,0,0.3,0,0.5c0,0.1,0.1,0,0.1,0c-0.1-0.1,0-0.3,0-0.4C12.3,0.9,12.2,0.9,12.2,1L12.2,1z"/>
			</g>
		</g>
	</g>
	<g>
		<g>
			<g>
				<path d="M11.5,0.7c0.1,0.1,0.1,0.3,0.1,0.5c0,0.1,0.1,0.1,0.1,0c0-0.2,0-0.3-0.1-0.5C11.6,0.6,11.5,0.6,11.5,0.7L11.5,0.7z"/>
			</g>
		</g>
	</g>
	<g>
		<g>
			<g>
				<path d="M10.9,0.6C11,0.8,11,1,11.1,1.1c0,0.1,0.1,0,0.1,0c0-0.2-0.1-0.4-0.1-0.5C11,0.5,10.9,0.5,10.9,0.6L10.9,0.6z"/>
			</g>
		</g>
	</g>
	<g>
		<g>
			<g>
				<path d="M10.8,2c0-0.2,0-0.3,0-0.5c0-0.1-0.1-0.1-0.1,0c0,0.2,0,0.3,0,0.5C10.7,2,10.8,2,10.8,2L10.8,2z"/>
			</g>
		</g>
	</g>
	<g>
		<g>
			<g>
				<path d="M9.8,1c0,0.1,0,0.3,0,0.4c0,0.1,0.1,0,0.1,0c0-0.1,0-0.3,0-0.4C9.9,0.9,9.8,0.9,9.8,1L9.8,1z"/>
			</g>
		</g>
	</g>
	<g>
		<g>
			<g>
				<path d="M9.3,2.1c0.1,0.1,0.1,0.2,0.2,0.3c0,0.1,0.1,0,0.1,0c0-0.1-0.1-0.2-0.2-0.3C9.4,2,9.3,2,9.3,2.1L9.3,2.1z"/>
			</g>
		</g>
	</g>
	<g>
		<g>
			<g>
				<path d="M10.2,1.9C10.2,1.9,10.2,1.9,10.2,1.9c0,0-0.1,0-0.1,0c0,0.1,0,0.2,0,0.3c0,0.1,0.1,0,0.1,0C10.2,2.1,10.2,2,10.2,1.9
					c0-0.1-0.1-0.1-0.1,0c0,0,0,0,0,0C10.1,2,10.2,2,10.2,1.9L10.2,1.9z"/>
			</g>
		</g>
	</g>
	<g>
		<g>
			<g>
				<path d="M12.4,0.2c0,0.1,0,0.2,0,0.3c0,0.1,0.1,0.1,0.1,0c0-0.1,0-0.2,0-0.3C12.6,0.2,12.4,0.1,12.4,0.2L12.4,0.2z"/>
			</g>
		</g>
	</g>
	<g>
		<g>
			<g>
				<path d="M11.4,1.5c0,0,0,0.1,0,0.1c0,0.1,0.1,0.1,0.1,0c0,0,0-0.1,0-0.1C11.6,1.4,11.4,1.4,11.4,1.5L11.4,1.5z"/>
			</g>
		</g>
	</g>
	<g>
		<g>
			<g>
				<path d="M13.4,0.8c0-0.2,0-0.4,0-0.6c0-0.1-0.1-0.1-0.1,0c0,0.2,0,0.4,0,0.6C13.3,0.9,13.4,0.9,13.4,0.8L13.4,0.8z"/>
			</g>
		</g>
	</g>
	<g>
		<g>
			<g>
				<path d="M13.2,1.1c0,0.1,0,0.2,0,0.3c0,0.1,0.1,0,0.1,0c0-0.1,0-0.2,0-0.2C13.3,1,13.2,1,13.2,1.1L13.2,1.1z"/>
			</g>
		</g>
	</g>
	<g>
		<g>
			<g>
				<path d="M14,0.8c0,0.1,0,0.2,0,0.3c0,0.1,0.1,0.1,0.1,0c0-0.1,0.1-0.2,0-0.3C14.1,0.7,14,0.7,14,0.8L14,0.8z"/>
			</g>
		</g>
	</g>
	<g>
		<g>
			<g>
				<path d="M14.4,0.1c0,0.2-0.1,0.4-0.1,0.6c0,0.1,0.1,0.1,0.1,0c0-0.2,0.1-0.4,0.1-0.6C14.5,0,14.4,0,14.4,0.1L14.4,0.1z"/>
			</g>
		</g>
	</g>
	<g>
		<g>
			<g>
				<path d="M14.8,0.9c-0.1,0.1-0.1,0.2-0.1,0.4c0,0.1,0.1,0.1,0.1,0C14.8,1.2,14.8,1.1,14.8,0.9C15,1,14.9,0.9,14.8,0.9L14.8,0.9z"
					/>
			</g>
		</g>
	</g>
	<g>
		<g>
			<g>
				<path d="M14.4,1.1c0,0,0,0.1-0.1,0.1c0,0.1,0,0.1-0.1,0.2c0,0.1,0.1,0.1,0.1,0c0-0.1,0-0.1,0-0.2C14.5,1.2,14.5,1.2,14.4,1.1
					C14.5,1.1,14.5,1,14.4,1.1L14.4,1.1z"/>
			</g>
		</g>
	</g>
	<g>
		<g>
			<g>
				<path d="M15.3,2c0,0.1,0,0.2,0,0.3c0,0.1,0.1,0.1,0.1,0c0-0.1,0-0.2,0-0.3C15.4,1.9,15.3,1.9,15.3,2L15.3,2z"/>
			</g>
		</g>
	</g>
	<g>
		<g>
			<g>
				<path d="M15.3,1.2c0,0.1,0,0.2,0,0.3c0,0.1,0.1,0.1,0.1,0c0-0.1,0-0.2,0-0.3C15.4,1.1,15.3,1.1,15.3,1.2L15.3,1.2z"/>
			</g>
		</g>
	</g>
	<g>
		<g>
			<g>
				<path d="M15.6,0.6c-0.1,0.2-0.1,0.4-0.1,0.6c0,0.1,0.1,0.1,0.1,0c0-0.2,0-0.4,0.1-0.6C15.7,0.5,15.6,0.5,15.6,0.6L15.6,0.6z"/>
			</g>
		</g>
	</g>
	<g>
		<g>
			<g>
				<path d="M16,1.4c-0.1,0.1-0.1,0.1-0.1,0.2c0,0.1,0.1,0.1,0.1,0C16,1.5,16,1.5,16,1.4C16.1,1.4,16,1.3,16,1.4L16,1.4z"/>
			</g>
		</g>
	</g>
	<g>
		<g>
			<g>
				<path d="M15.8,2.3c0,0.1,0,0.2-0.1,0.2c0,0.1,0.1,0.1,0.1,0.1c0-0.1,0.1-0.2,0.1-0.3C15.9,2.2,15.8,2.2,15.8,2.3L15.8,2.3z"/>
			</g>
		</g>
	</g>
	<g>
		<g>
			<g>
				<path d="M16.5,2.6c0,0.1,0,0.2-0.1,0.3c0,0.1,0.1,0.1,0.1,0c0-0.1,0-0.2,0.1-0.3C16.7,2.6,16.6,2.6,16.5,2.6L16.5,2.6z"/>
			</g>
		</g>
	</g>
	<g>
		<g>
			<g>
				<path d="M16.7,1.1c0,0.1-0.1,0.2-0.1,0.4c0,0.1,0.1,0.1,0.1,0c0-0.1,0.1-0.2,0.1-0.4C16.8,1.1,16.7,1,16.7,1.1L16.7,1.1z"/>
			</g>
		</g>
	</g>
	<g>
		<g>
			<g>
				<path d="M16.5,1.9c-0.1,0.1-0.1,0.2-0.1,0.3c0,0.1,0.1,0.1,0.1,0c0-0.1,0-0.1,0.1-0.2C16.6,1.9,16.6,1.8,16.5,1.9L16.5,1.9z"/>
			</g>
		</g>
	</g>
	<g>
		<g>
			<g>
				<path d="M17.4,2.4c-0.1,0.1-0.2,0.2-0.2,0.3c0,0.1,0.1,0.1,0.1,0c0-0.1,0.1-0.2,0.2-0.2C17.5,2.4,17.4,2.3,17.4,2.4L17.4,2.4z"
					/>
			</g>
		</g>
	</g>
	<g>
		<g>
			<g>
				<path d="M17.1,3.3c0,0.1,0,0.1-0.1,0.2c0,0.1,0.1,0.1,0.1,0.1c0-0.1,0.1-0.1,0.1-0.2C17.2,3.2,17.1,3.2,17.1,3.3L17.1,3.3z"/>
			</g>
		</g>
	</g>
	<g>
		<g>
			<g>
				<path d="M16.6,3.4c-0.1,0.1-0.1,0.2-0.1,0.3c0,0.1,0.1,0,0.1,0c0-0.1,0-0.2,0.1-0.2C16.8,3.4,16.7,3.3,16.6,3.4L16.6,3.4z"/>
			</g>
		</g>
	</g>
	<g>
		<g>
			<g>
				<path d="M17.1,4c0,0.1,0,0.3,0,0.4c0,0.1,0.1,0.1,0.1,0c0-0.1,0-0.2,0-0.4C17.2,4,17.1,3.9,17.1,4L17.1,4z"/>
			</g>
		</g>
	</g>
	<g>
		<g>
			<g>
				<path d="M17.5,3.4c0,0,0,0.1,0,0.1c0,0.1,0.1,0,0.1-0.1c0,0,0,0,0-0.1C17.6,3.4,17.5,3.4,17.5,3.4L17.5,3.4z"/>
			</g>
		</g>
	</g>
	<g>
		<g>
			<g>
				<path d="M18.1,2.7C18.1,2.7,18.1,2.7,18.1,2.7c0,0-0.1,0-0.1-0.1c0,0,0,0,0,0c0,0,0,0,0,0c0,0,0,0.1-0.1,0.1
					c0,0.1-0.1,0.2-0.1,0.3c0,0.1,0.1,0.1,0.1,0C17.9,3,17.9,3,18,2.9C18,2.8,18,2.8,18.1,2.7C18.1,2.6,18,2.6,18.1,2.7
					C18,2.6,18,2.6,18,2.6C17.9,2.7,18,2.8,18.1,2.7L18.1,2.7z"/>
			</g>
		</g>
	</g>
	<g>
		<g>
			<g>
				<path d="M18.1,4.2c0,0.1-0.1,0.2-0.1,0.3c0,0.1,0.1,0.1,0.1,0c0-0.1,0.1-0.2,0.1-0.3C18.3,4.1,18.2,4.1,18.1,4.2L18.1,4.2z"/>
			</g>
		</g>
	</g>
	<g>
		<g>
			<g>
				<path d="M17.7,4.8c0,0.1,0,0.2,0,0.3c0,0.1,0.1,0.1,0.1,0c0-0.1,0-0.2,0-0.2C17.8,4.8,17.7,4.7,17.7,4.8L17.7,4.8z"/>
			</g>
		</g>
	</g>
	<g>
		<g>
			<g>
				<path d="M18.5,4.8c0,0.1-0.1,0.2-0.1,0.3c0,0.1,0.1,0.1,0.1,0c0-0.1,0-0.2,0.1-0.3C18.6,4.8,18.5,4.7,18.5,4.8L18.5,4.8z"/>
			</g>
		</g>
	</g>
	<g>
		<g>
			<g>
				<path d="M18.7,4.4c-0.1,0.1-0.1,0.2-0.2,0.4c0,0.1,0.1,0.1,0.1,0.1c0.1-0.1,0.1-0.2,0.2-0.4C18.8,4.4,18.7,4.3,18.7,4.4
					L18.7,4.4z"/>
			</g>
		</g>
	</g>
	<g>
		<g>
			<g>
				<path d="M18,5.1c0,0.1,0,0.2,0,0.3c0,0.1,0.1,0.1,0.1,0c0-0.1,0-0.2,0-0.3C18.2,5,18.1,5,18,5.1L18,5.1z"/>
			</g>
		</g>
	</g>
	<g>
		<g>
			<g>
				<path d="M18.2,5.7c-0.1,0.1,0,0.3,0,0.4c0,0.1,0.1,0,0.1-0.1C18.4,5.9,18.3,5.8,18.2,5.7C18.4,5.7,18.3,5.6,18.2,5.7L18.2,5.7z"
					/>
			</g>
		</g>
	</g>
	<g>
		<g>
			<g>
				<path d="M18.8,5.3c0,0.1-0.1,0.1-0.1,0.2c0,0.1-0.1,0.2-0.1,0.3c0,0.1,0.1,0.1,0.1,0.1c0-0.1,0.1-0.2,0.1-0.3
					c0-0.1,0.1-0.2,0.1-0.2C19,5.3,18.8,5.3,18.8,5.3L18.8,5.3z"/>
			</g>
		</g>
	</g>
	<g>
		<g>
			<g>
				<path d="M19.3,5.6c-0.1,0.2-0.2,0.4-0.2,0.5c0,0.1,0.1,0.1,0.1,0.1c0.1-0.2,0.1-0.4,0.2-0.5C19.5,5.6,19.4,5.5,19.3,5.6
					L19.3,5.6z"/>
			</g>
		</g>
	</g>
	<g>
		<g>
			<g>
				<path d="M8.9,2.5C9,2.6,9.1,2.7,9.2,2.8c0,0.1,0.1,0,0.1-0.1C9.2,2.7,9.1,2.6,8.9,2.5C9,2.4,8.9,2.5,8.9,2.5L8.9,2.5z"/>
			</g>
		</g>
	</g>
	<g>
		<g>
			<g>
				<path d="M18.9,6.5c0,0.1,0,0.1,0,0.2c0,0.1,0.1,0,0.1,0c0,0,0-0.1,0-0.1C19.1,6.5,19,6.4,18.9,6.5L18.9,6.5z"/>
			</g>
		</g>
	</g>
	<g>
		<g>
			<g>
				<path d="M18.4,6.4c0,0.1,0,0.1,0,0.2c0,0.1,0.1,0,0.1,0c0-0.1,0-0.1,0-0.2C18.6,6.4,18.4,6.4,18.4,6.4L18.4,6.4z"/>
			</g>
		</g>
	</g>
	<g>
		<g>
			<g>
				<path d="M18.6,7.1c0,0,0.1,0.1,0.1,0.1c0,0.1,0.1,0,0.1,0C18.8,7.1,18.8,7.1,18.6,7.1C18.7,7,18.6,7.1,18.6,7.1L18.6,7.1z"/>
			</g>
		</g>
	</g>
	<g>
		<g>
			<g>
				<path d="M19.3,7c-0.1,0.2-0.1,0.3,0,0.5c0,0.1,0.1,0,0.1-0.1C19.3,7.3,19.3,7.1,19.3,7C19.4,7,19.3,6.9,19.3,7L19.3,7z"/>
			</g>
		</g>
	</g>
	<g>
		<g>
			<g>
				<path d="M19.8,7.1c-0.1,0.2-0.2,0.4-0.3,0.6c0,0.1,0.1,0.1,0.1,0.1c0.1-0.2,0.2-0.4,0.3-0.6C19.9,7,19.8,7,19.8,7.1L19.8,7.1z"
					/>
			</g>
		</g>
	</g>
	<g>
		<g>
			<g>
				<path d="M19.7,8.5c0,0.1,0,0.2,0,0.3c0,0.1,0.1,0.1,0.1,0c0-0.1,0-0.2,0-0.3C19.8,8.4,19.7,8.4,19.7,8.5L19.7,8.5z"/>
			</g>
		</g>
	</g>
	<g>
		<g>
			<g>
				<path d="M19.8,9.9c0,0.1-0.1,0.3-0.1,0.4c0,0.1,0.1,0.1,0.1,0c0-0.1,0-0.2,0.1-0.4C20,9.8,19.8,9.8,19.8,9.9L19.8,9.9z"/>
			</g>
		</g>
	</g>
	<g>
		<g>
			<g>
				<path d="M19.5,9c0-0.2,0.2-0.3,0.3-0.4c0-0.1,0-0.1-0.1-0.1c-0.1,0.1-0.3,0.2-0.3,0.4C19.4,9,19.5,9,19.5,9L19.5,9z"/>
			</g>
		</g>
	</g>
	<g>
		<g>
			<g>
				<path d="M19.4,8.3c0-0.1,0.2-0.2,0.3-0.1c0.1,0,0.1-0.1,0-0.1c-0.2-0.1-0.4,0-0.4,0.2C19.3,8.3,19.4,8.4,19.4,8.3L19.4,8.3z"/>
			</g>
		</g>
	</g>
	<g>
		<g>
			<g>
				<path d="M19.8,9.4c0.1-0.1,0.2-0.1,0.3-0.2c0.1,0,0-0.1-0.1-0.1c-0.1,0.1-0.2,0.1-0.3,0.2C19.6,9.4,19.7,9.5,19.8,9.4L19.8,9.4z
					"/>
			</g>
		</g>
	</g>
	<g>
		<g>
			<g>
				<path d="M19.8,10.5c0-0.1,0.1-0.1,0.2-0.1c0.1,0,0-0.1,0-0.1c-0.1,0-0.2,0.1-0.2,0.2C19.7,10.5,19.8,10.6,19.8,10.5L19.8,10.5z"
					/>
			</g>
		</g>
	</g>
	<g>
		<g>
			<g>
				<path d="M19.3,9.9c0.1,0,0.1,0.1,0.1,0.1c0,0.1,0.1,0,0.1,0c0-0.1-0.1-0.2-0.3-0.2C19.2,9.8,19.2,9.9,19.3,9.9L19.3,9.9z"/>
			</g>
		</g>
	</g>
	<g>
		<g>
			<g>
				<path d="M19.2,10.5c0,0.1-0.1,0.2,0,0.3c0,0.1,0.1,0,0.1,0c0-0.1,0-0.1,0-0.2C19.3,10.5,19.2,10.4,19.2,10.5L19.2,10.5z"/>
			</g>
		</g>
	</g>
	<g>
		<g>
			<g>
				<path d="M19.1,11.6c0,0.1,0,0.1,0,0.2c0,0.1,0.1,0.1,0.1,0c0-0.1,0-0.1,0-0.2C19.3,11.5,19.2,11.5,19.1,11.6L19.1,11.6z"/>
			</g>
		</g>
	</g>
	<g>
		<g>
			<g>
				<path d="M19.6,11.1c-0.1,0-0.1,0-0.2,0.1c-0.1,0.1-0.1,0.2-0.1,0.3c0,0.1,0.1,0.1,0.1,0.1c0-0.1,0.1-0.1,0.1-0.2
					c0,0,0-0.1,0-0.1c0,0,0,0,0,0c0,0,0,0,0,0C19.6,11.3,19.7,11.2,19.6,11.1L19.6,11.1z"/>
			</g>
		</g>
	</g>
	<g>
		<g>
			<g>
				<path d="M19.6,12c-0.1,0.1,0,0.3,0,0.4c0,0.1,0.1,0,0.1,0c0-0.1-0.1-0.2,0-0.3C19.7,12,19.6,12,19.6,12L19.6,12z"/>
			</g>
		</g>
	</g>
	<g>
		<g>
			<g>
				<path d="M19.6,12.6c0.1,0,0.1-0.1,0-0.1S19.5,12.6,19.6,12.6L19.6,12.6z"/>
			</g>
		</g>
	</g>
	<g>
		<g>
			<g>
				<path d="M17.1,4.9C17,5,17,5.1,16.9,5.2c0,0.1,0.1,0.1,0.1,0c0-0.1,0.1-0.2,0.1-0.3C17.2,4.9,17.1,4.8,17.1,4.9L17.1,4.9z"/>
			</g>
		</g>
	</g>
	<g>
		<g>
			<g>
				<path d="M17.5,5.5c0,0.1,0,0.1,0,0.2c0,0.1,0.1,0.1,0.1,0c0-0.1,0-0.1,0-0.2C17.6,5.4,17.5,5.4,17.5,5.5L17.5,5.5z"/>
			</g>
		</g>
	</g>
	<g>
		<g>
			<g>
				<path d="M17.1,6.6C17,6.6,17,6.7,17,6.8c0,0.1,0.1,0.1,0.1,0c0-0.1,0-0.2,0.1-0.2C17.3,6.6,17.2,6.5,17.1,6.6L17.1,6.6z"/>
			</g>
		</g>
	</g>
	<g>
		<g>
			<g>
				<path d="M17.5,6.7c-0.1,0.1-0.2,0.3-0.3,0.4c0,0.1,0.1,0.1,0.1,0.1C17.4,7,17.5,6.9,17.5,6.7C17.7,6.7,17.6,6.6,17.5,6.7
					L17.5,6.7z"/>
			</g>
		</g>
	</g>
	<g>
		<g>
			<g>
				<path d="M16.6,7.4c-0.1,0.1-0.1,0.3-0.1,0.5c0,0.1,0.1,0.1,0.1,0c0-0.2,0.1-0.3,0.1-0.5C16.7,7.3,16.6,7.3,16.6,7.4L16.6,7.4z"
					/>
			</g>
		</g>
	</g>
	<g>
		<g>
			<g>
				<path d="M16.2,7.9c0,0.1,0,0.1,0,0.2c0,0.1,0.1,0.1,0.1,0c0-0.1,0-0.1,0-0.2C16.3,7.8,16.2,7.8,16.2,7.9L16.2,7.9z"/>
			</g>
		</g>
	</g>
	<g>
		<g>
			<g>
				<path d="M16.5,8.3c0,0.1,0,0.2,0,0.3c0,0.1,0.1,0,0.1-0.1c0-0.1,0-0.1,0-0.2C16.6,8.2,16.5,8.2,16.5,8.3L16.5,8.3z"/>
			</g>
		</g>
	</g>
	<g>
		<g>
			<g>
				<path d="M16.3,8.6c0,0.1,0,0.1,0,0.2c0,0.1,0.1,0,0.1,0c0-0.1,0-0.1,0-0.2C16.4,8.5,16.3,8.5,16.3,8.6L16.3,8.6z"/>
			</g>
		</g>
	</g>
	<g>
		<g>
			<g>
				<path d="M16.5,8.7c0,0.1,0,0.2,0,0.3c0,0.1,0.1,0.1,0.1,0c0-0.1,0-0.2,0-0.3C16.6,8.6,16.5,8.6,16.5,8.7L16.5,8.7z"/>
			</g>
		</g>
	</g>
	<g>
		<g>
			<g>
				<path d="M16.6,9.2c0,0.1,0,0.2,0,0.3c0,0.1,0.1,0.1,0.1,0c0-0.1,0-0.2,0-0.3C16.8,9.2,16.7,9.1,16.6,9.2L16.6,9.2z"/>
			</g>
		</g>
	</g>
	<g>
		<g>
			<g>
				<path d="M16.2,9.1c0,0.2,0,0.3,0,0.5c0,0.1,0.1,0.1,0.1,0c0-0.2,0-0.3,0-0.5C16.3,9.1,16.2,9.1,16.2,9.1L16.2,9.1z"/>
			</g>
		</g>
	</g>
	<g>
		<g>
			<g>
				<path d="M16.2,9.9c0,0.1,0,0.2,0.1,0.3c0,0.1,0.1,0,0.1,0c0-0.1,0-0.2-0.1-0.3C16.3,9.8,16.2,9.8,16.2,9.9L16.2,9.9z"/>
			</g>
		</g>
	</g>
	<g>
		<g>
			<g>
				<path d="M16.6,10.3c0,0.1,0,0.1,0,0.2c0,0.1,0.1,0.1,0.1,0c0-0.1,0-0.1,0-0.2C16.7,10.2,16.6,10.2,16.6,10.3L16.6,10.3z"/>
			</g>
		</g>
	</g>
	<g>
		<g>
			<g>
				<path d="M16.8,10.2c0,0.1,0,0.3,0,0.4c0,0.1,0.1,0.1,0.1,0c0-0.1,0-0.3,0-0.4C16.9,10.1,16.8,10.1,16.8,10.2L16.8,10.2z"/>
			</g>
		</g>
	</g>
	<g>
		<g>
			<g>
				<path d="M16.1,10.1c0,0.1,0,0.2,0,0.3c0,0.1,0.1,0.1,0.1,0c0-0.1,0-0.1,0-0.2C16.2,10.1,16.1,10.1,16.1,10.1L16.1,10.1z"/>
			</g>
		</g>
	</g>
	<g>
		<g>
			<g>
				<path d="M15.8,10.5c0,0.1,0,0.1,0,0.2c0,0.1,0.1,0.1,0.1,0c0-0.1,0-0.1,0-0.2C15.9,10.4,15.8,10.4,15.8,10.5L15.8,10.5z"/>
			</g>
		</g>
	</g>
	<g>
		<g>
			<g>
				<path d="M15.5,11.1c0,0.1,0,0.1,0,0.2c0,0.1,0.1,0.1,0.1,0c0-0.1,0-0.2,0-0.3C15.6,11,15.5,11,15.5,11.1L15.5,11.1z"/>
			</g>
		</g>
	</g>
	<g>
		<g>
			<g>
				<path d="M15.4,11.3c0,0.1-0.1,0.2-0.1,0.3c0,0.1,0.1,0.1,0.1,0c0-0.1,0-0.2,0.1-0.2C15.5,11.3,15.4,11.3,15.4,11.3L15.4,11.3z"
					/>
			</g>
		</g>
	</g>
	<g>
		<g>
			<g>
				<path d="M15.7,11.3c0,0.1,0,0.3,0.1,0.4c0,0.1,0.1,0,0.1-0.1c0-0.1-0.1-0.2-0.1-0.3C15.8,11.2,15.7,11.2,15.7,11.3L15.7,11.3z"
					/>
			</g>
		</g>
	</g>
	<g>
		<g>
			<g>
				<path d="M16.1,11.2c0,0.1,0,0.2,0.1,0.3c0.1,0.1,0.1,0,0.1-0.1c0,0-0.1-0.1,0-0.2C16.2,11.1,16.1,11.1,16.1,11.2L16.1,11.2z"/>
			</g>
		</g>
	</g>
	<g>
		<g>
			<g>
				<path d="M16.5,11.1c0,0.1,0,0.3,0.1,0.4c0,0.1,0.1,0,0.1-0.1c-0.1-0.1-0.1-0.2-0.1-0.3C16.6,11,16.5,11,16.5,11.1L16.5,11.1z"/>
			</g>
		</g>
	</g>
	<g>
		<g>
			<g>
				<path d="M16.9,10.8c0,0.1,0,0.2,0,0.4c0,0.1,0.1,0,0.1,0c0-0.1-0.1-0.2,0-0.3C17.1,10.8,17,10.7,16.9,10.8L16.9,10.8z"/>
			</g>
		</g>
	</g>
	<g>
		<g>
			<g>
				<path d="M17.2,10.8c0,0.1,0,0.2,0,0.2c0,0.1,0.1,0.1,0.1,0c0-0.1,0-0.1,0-0.2C17.3,10.8,17.2,10.7,17.2,10.8L17.2,10.8z"/>
			</g>
		</g>
	</g>
	<g>
		<g>
			<g>
				<path d="M16.1,10.7c0,0.1,0.1,0.1,0.1,0.2c0,0.1,0.1,0,0.1,0c0-0.1,0-0.1-0.1-0.2C16.1,10.6,16,10.7,16.1,10.7L16.1,10.7z"/>
			</g>
		</g>
	</g>
	<g>
		<g>
			<g>
				<path d="M16.6,10.4c0,0.1,0,0.1,0,0.2c0,0.1,0.1,0.1,0.1,0c0,0,0-0.1,0-0.1C16.8,10.4,16.7,10.4,16.6,10.4L16.6,10.4z"/>
			</g>
		</g>
	</g>
	<g>
		<g>
			<g>
				<path d="M19.2,12.3C19.3,12.3,19.2,12.3,19.2,12.3C19.2,12.3,19.2,12.4,19.2,12.3c0,0.1,0,0.1,0,0.2c0,0.1,0.1,0,0.1,0
					C19.3,12.4,19.3,12.3,19.2,12.3C19.3,12.2,19.2,12.2,19.2,12.3C19.1,12.3,19.2,12.4,19.2,12.3L19.2,12.3z"/>
			</g>
		</g>
	</g>
	<g>
		<g>
			<g>
				<path d="M16.3,7c0,0.1,0,0.2,0,0.3c0,0.1,0.1,0,0.1-0.1c0-0.1,0-0.2,0-0.3C16.4,6.9,16.3,6.9,16.3,7L16.3,7z"/>
			</g>
		</g>
	</g>
	<g>
		<g>
			<g>
				<path d="M16.7,6.6c0,0.1,0,0.2,0,0.2c0,0.1,0.1,0.1,0.1,0c0-0.1,0-0.1,0-0.2C16.8,6.6,16.7,6.5,16.7,6.6L16.7,6.6z"/>
			</g>
		</g>
	</g>
	<g>
		<g>
			<g>
				<path d="M16.9,6.2c0,0.1,0,0.1,0,0.2c0,0.1,0.1,0.1,0.1,0c0-0.1,0-0.1,0-0.2C17,6,16.8,6.1,16.9,6.2L16.9,6.2z"/>
			</g>
		</g>
	</g>
	<g>
		<g>
			<g>
				<path d="M16.8,6.3C16.8,6.4,16.8,6.4,16.8,6.3c-0.1,0.1,0,0.2,0,0.1C16.9,6.5,16.9,6.4,16.8,6.3C16.9,6.4,16.9,6.3,16.8,6.3
					L16.8,6.3z"/>
			</g>
		</g>
	</g>
	<g>
		<g>
			<g>
				<path d="M16.3,6.4c0,0.1,0,0.1,0,0.2c0,0.1,0.1,0,0.1,0c0-0.1,0-0.1,0-0.2C16.4,6.3,16.3,6.3,16.3,6.4L16.3,6.4z"/>
			</g>
		</g>
	</g>
	<g>
		<g>
			<g>
				<path d="M16,6.1C16,6.1,16,6.2,16,6.2c0,0.1,0.1,0,0.1-0.1c0-0.1-0.1-0.1-0.1-0.2C16,5.9,15.9,6,16,6.1L16,6.1z"/>
			</g>
		</g>
	</g>
	<g>
		<g>
			<g>
				<path d="M16.3,5.4c0,0.1,0,0.2,0.1,0.2c0,0.1,0.1,0,0.1,0c0-0.1-0.1-0.1-0.1-0.2C16.5,5.3,16.3,5.3,16.3,5.4L16.3,5.4z"/>
			</g>
		</g>
	</g>
	<g>
		<g>
			<g>
				<path d="M16.7,5.3c0,0,0,0.1,0,0.1c0,0.1,0.1,0,0.1,0c0,0,0-0.1,0-0.1C16.7,5.2,16.6,5.2,16.7,5.3L16.7,5.3z"/>
			</g>
		</g>
	</g>
	<g>
		<g>
			<g>
				<path d="M16.2,4.7c0,0.1,0,0.1,0,0.2c0.1,0.1,0.1,0,0.1-0.1c0,0,0,0,0-0.1C16.4,4.7,16.3,4.6,16.2,4.7L16.2,4.7z"/>
			</g>
		</g>
	</g>
	<g>
		<g>
			<g>
				<path d="M16.5,4.2c0,0,0,0.1,0,0.1c0,0.1,0.1,0.1,0.1,0c0,0,0-0.1,0-0.1C16.6,4.1,16.5,4.2,16.5,4.2L16.5,4.2z"/>
			</g>
		</g>
	</g>
	<g>
		<g>
			<circle fill="#FFFFFF" cx="8.3" cy="6.8" r="0.7"/>
		</g>
		<g>
			<path d="M8.3,7.6c-0.5,0-0.8-0.4-0.8-0.8S7.8,6,8.3,6s0.8,0.4,0.8,0.8S8.7,7.6,8.3,7.6z M8.3,6.2c-0.3,0-0.6,0.3-0.6,0.6
				s0.3,0.6,0.6,0.6s0.6-0.3,0.6-0.6S8.6,6.2,8.3,6.2z"/>
		</g>
	</g>
	<g>
		<g>
			<circle fill="#CFCECE" cx="12.5" cy="6.8" r="1.4"/>
		</g>
		<g>
			<path d="M12.5,8.4c-0.8,0-1.5-0.7-1.5-1.5s0.7-1.5,1.5-1.5C13.3,5.3,14,6,14,6.8S13.3,8.4,12.5,8.4z M12.5,5.5
				c-0.7,0-1.3,0.6-1.3,1.3s0.6,1.3,1.3,1.3s1.3-0.6,1.3-1.3S13.2,5.5,12.5,5.5z"/>
		</g>
	</g>
	<g>
		<g>
			<g>
				<path d="M12.4,7.3c0.5,0,0.5-0.7,0-0.7C11.9,6.6,11.9,7.3,12.4,7.3L12.4,7.3z"/>
			</g>
		</g>
	</g>
	<g>
		<g>
			<g>
				<path d="M8.2,6.9c0.2,0,0.2-0.3,0-0.3C8,6.7,8,6.9,8.2,6.9L8.2,6.9z"/>
			</g>
		</g>
	</g>
	<g>
		<g>
			<path fill="#FFFFFF" d="M13,6.2c-0.1-0.1,0.2-0.3,0.3-0.1c0.5,0.7,0,1.7,0,1.4C13.4,7.2,13.7,7.3,13,6.2z"/>
		</g>
	</g>
	<g>
		<g>
			<g>
				<path fill="#C5BC2F" d="M14.9,7c0.2,0,0.2-0.4,0-0.4C14.7,6.7,14.7,7,14.9,7L14.9,7z"/>
			</g>
		</g>
	</g>
	<g>
		<g>
			<g>
				<path fill="#C5BC2F" d="M15,7.3c0.2,0,0.2-0.4,0-0.4C14.8,6.9,14.8,7.3,15,7.3L15,7.3z"/>
			</g>
		</g>
	</g>
	<g>
		<g>
			<g>
				<path fill="#C5BC2F" d="M15,7.5c0.2,0,0.2-0.4,0-0.4C14.8,7.2,14.8,7.5,15,7.5L15,7.5z"/>
			</g>
		</g>
	</g>
	<g>
		<g>
			<path d="M14.3,6.3c0,0,0.5-0.2,0.5,0c0,0.2,0,0.2,0,0.2v0.8c0,0-0.2,0-0.4,0C14.3,7.1,14.3,6.3,14.3,6.3z"/>
		</g>
		<g>
			<path d="M14.8,7.3c0,0-0.2,0-0.4,0c-0.1,0-0.2,0-0.2-1c0,0,0-0.1,0.1-0.1c0,0,0.3-0.1,0.4-0.1c0.2,0,0.2,0.1,0.2,0.2v1
				C14.9,7.3,14.9,7.3,14.8,7.3z M14.5,7.1c0.1,0,0.1,0,0.2,0V6.3c-0.1,0-0.2,0-0.3,0.1C14.4,6.6,14.4,7,14.5,7.1z"/>
		</g>
	</g>
</g>
<g id="tie">
	<g>
		<path d="M12.4,16.1c-0.2,0.2-0.7,1.7-0.4,2.2c0.4,0,1.4-0.9,1.4-0.9s1.1,0.7,1.4,0.6c0.1-0.3,0.3-2.5,0-2.2c-0.3,0.2-1.2,1-1.2,1
			S12.7,15.9,12.4,16.1z"/>
		<path d="M12,18.4C12,18.4,11.9,18.4,12,18.4c-0.3-0.3-0.2-0.7-0.2-1.1c0.1-0.5,0.3-1.2,0.5-1.3c0,0,0.1,0,0.2,0
			c0.3,0,0.9,0.5,1.2,0.7c0.2-0.2,0.8-0.8,1.1-1c0,0,0.1,0,0.1,0c0,0,0.1,0,0.2,0.1c0.2,0.3,0.1,2,0,2.3c0,0,0,0.1-0.1,0.1
			c0,0,0,0-0.1,0c-0.4,0-1.1-0.5-1.3-0.6C13.2,17.7,12.4,18.3,12,18.4C12,18.4,12,18.4,12,18.4z M12.5,16.2
			C12.5,16.2,12.5,16.2,12.5,16.2c-0.1,0.1-0.3,0.6-0.4,1.2c-0.1,0.3,0,0.6,0,0.8c0.3-0.1,0.9-0.5,1.3-0.8c0,0,0.1,0,0.1,0
			c0.3,0.2,1,0.6,1.2,0.6c0.1-0.4,0.2-1.7,0.1-2c-0.3,0.3-1.1,1-1.1,1c0,0-0.1,0-0.2,0C13.3,16.6,12.7,16.2,12.5,16.2z"/>
	</g>
</g>
<g id="monocle_chain">
	<g>
		<g>
			<g>
				<path fill="#C5BC2F" d="M15,8.1c0.2,0,0.2-0.4,0-0.4C14.8,7.7,14.8,8.1,15,8.1L15,8.1z"/>
			</g>
		</g>
	</g>
	<g>
		<g>
			<g>
				<path fill="#C5BC2F" d="M15,8.3c0.2,0,0.2-0.4,0-0.4C14.8,8,14.8,8.3,15,8.3L15,8.3z"/>
			</g>
		</g>
	</g>
	<g>
		<g>
			<g>
				<path fill="#C5BC2F" d="M15,8.6c0.2,0,0.2-0.4,0-0.4C14.8,8.2,14.8,8.6,15,8.6L15,8.6z"/>
			</g>
		</g>
	</g>
	<g>
		<g>
			<g>
				<path fill="#C5BC2F" d="M15,8.8c0.2,0,0.2-0.4,0-0.4C14.8,8.5,14.8,8.8,15,8.8L15,8.8z"/>
			</g>
		</g>
	</g>
	<g>
		<g>
			<g>
				<path fill="#C5BC2F" d="M15,9.1c0.2,0,0.2-0.4,0-0.4C14.8,8.7,14.8,9.1,15,9.1L15,9.1z"/>
			</g>
		</g>
	</g>
	<g>
		<g>
			<g>
				<path fill="#C5BC2F" d="M15,9.3c0.2,0,0.2-0.4,0-0.4C14.8,9,14.8,9.3,15,9.3L15,9.3z"/>
			</g>
		</g>
	</g>
	<g>
		<g>
			<g>
				<path fill="#C5BC2F" d="M15,9.6c0.2,0,0.2-0.4,0-0.4C14.8,9.3,14.8,9.6,15,9.6L15,9.6z"/>
			</g>
		</g>
	</g>
	<g>
		<g>
			<g>
				<path fill="#C5BC2F" d="M15,9.9c0.2,0,0.2-0.4,0-0.4C14.8,9.5,14.8,9.9,15,9.9L15,9.9z"/>
			</g>
		</g>
	</g>
	<g>
		<g>
			<g>
				<path fill="#C5BC2F" d="M15,10.2c0.2,0,0.2-0.4,0-0.4C14.8,9.8,14.8,10.2,15,10.2L15,10.2z"/>
			</g>
		</g>
	</g>
	<g>
		<g>
			<g>
				<path fill="#C5BC2F" d="M15,10.4c0.2,0,0.2-0.4,0-0.4C14.8,10.1,14.8,10.4,15,10.4L15,10.4z"/>
			</g>
		</g>
	</g>
	<g>
		<g>
			<g>
				<path fill="#C5BC2F" d="M15.1,10.7c0.2,0,0.2-0.4,0-0.4C14.8,10.3,14.8,10.7,15.1,10.7L15.1,10.7z"/>
			</g>
		</g>
	</g>
	<g>
		<g>
			<g>
				<path fill="#C5BC2F" d="M15.1,10.9c0.2,0,0.2-0.4,0-0.4C14.8,10.6,14.8,10.9,15.1,10.9L15.1,10.9z"/>
			</g>
		</g>
	</g>
	<g>
		<g>
			<g>
				<path fill="#C5BC2F" d="M15.1,11.1c0.2,0,0.2-0.4,0-0.4C14.8,10.8,14.8,11.1,15.1,11.1L15.1,11.1z"/>
			</g>
		</g>
	</g>
	<g>
		<g>
			<g>
				<path fill="#C5BC2F" d="M15,11.4c0.2,0,0.2-0.4,0-0.4C14.8,11,14.8,11.4,15,11.4L15,11.4z"/>
			</g>
		</g>
	</g>
	<g>
		<g>
			<g>
				<path fill="#C5BC2F" d="M15.1,11.7c0.2,0,0.2-0.4,0-0.4C14.8,11.3,14.8,11.7,15.1,11.7L15.1,11.7z"/>
			</g>
		</g>
	</g>
	<g>
		<g>
			<g>
				<path fill="#C5BC2F" d="M15,11.9c0.2,0,0.2-0.4,0-0.4C14.8,11.6,14.8,11.9,15,11.9L15,11.9z"/>
			</g>
		</g>
	</g>
	<g>
		<g>
			<g>
				<path fill="#C5BC2F" d="M15,12.2c0.2,0,0.2-0.4,0-0.4C14.8,11.8,14.8,12.2,15,12.2L15,12.2z"/>
			</g>
		</g>
	</g>
	<g>
		<g>
			<g>
				<path fill="#C5BC2F" d="M15,12.5c0.2,0,0.2-0.4,0-0.4C14.8,12.1,14.8,12.5,15,12.5L15,12.5z"/>
			</g>
		</g>
	</g>
	<g>
		<g>
			<g>
				<path fill="#C5BC2F" d="M15.1,12.7c0.2,0,0.2-0.4,0-0.4C14.8,12.4,14.8,12.7,15.1,12.7L15.1,12.7z"/>
			</g>
		</g>
	</g>
	<g>
		<g>
			<g>
				<path fill="#C5BC2F" d="M15.1,13c0.2,0,0.2-0.4,0-0.4C14.9,12.7,14.9,13,15.1,13L15.1,13z"/>
			</g>
		</g>
	</g>
	<g>
		<g>
			<g>
				<path fill="#C5BC2F" d="M15.1,13.3c0.2,0,0.2-0.4,0-0.4C14.8,12.9,14.8,13.3,15.1,13.3L15.1,13.3z"/>
			</g>
		</g>
	</g>
	<g>
		<g>
			<g>
				<path fill="#C5BC2F" d="M15.1,13.6c0.2,0,0.2-0.4,0-0.4C14.8,13.3,14.8,13.6,15.1,13.6L15.1,13.6z"/>
			</g>
		</g>
	</g>
	<g>
		<g>
			<g>
				<path fill="#C5BC2F" d="M15.1,13.9c0.2,0,0.2-0.4,0-0.4C14.9,13.6,14.9,13.9,15.1,13.9L15.1,13.9z"/>
			</g>
		</g>
	</g>
	<g>
		<g>
			<g>
				<path fill="#C5BC2F" d="M15.1,14.2c0.2,0,0.2-0.4,0-0.4C14.9,13.9,14.9,14.2,15.1,14.2L15.1,14.2z"/>
			</g>
		</g>
	</g>
	<g>
		<g>
			<g>
				<path fill="#C5BC2F" d="M15.2,14.5c0.2,0,0.2-0.4,0-0.4C15,14.2,15,14.5,15.2,14.5L15.2,14.5z"/>
			</g>
		</g>
	</g>
	<g>
		<g>
			<g>
				<path fill="#C5BC2F" d="M15.2,14.8c0.2,0,0.2-0.4,0-0.4C15,14.5,15,14.8,15.2,14.8L15.2,14.8z"/>
			</g>
		</g>
	</g>
	<g>
		<g>
			<g>
				<path fill="#C5BC2F" d="M15,7.8c0.2,0,0.2-0.4,0-0.4C14.8,7.4,14.8,7.8,15,7.8L15,7.8z"/>
			</g>
		</g>
	</g>
	<g>
		<g>
			<g>
				<path fill="#C5BC2F" d="M15.3,15c0.2,0,0.2-0.4,0-0.4C15.1,14.7,15.1,15,15.3,15L15.3,15z"/>
			</g>
		</g>
	</g>
	<g>
		<g>
			<g>
				<path fill="#C5BC2F" d="M15.4,15.2c0.2,0,0.2-0.4,0-0.4C15.2,14.9,15.2,15.2,15.4,15.2L15.4,15.2z"/>
			</g>
		</g>
	</g>
	<g>
		<g>
			<g>
				<path fill="#C5BC2F" d="M15.5,15.5c0.2,0,0.2-0.4,0-0.4C15.2,15.1,15.2,15.5,15.5,15.5L15.5,15.5z"/>
			</g>
		</g>
	</g>
	<g>
		<g>
			<g>
				<path fill="#C5BC2F" d="M15.5,15.7c0.2,0,0.2-0.4,0-0.4C15.3,15.4,15.3,15.7,15.5,15.7L15.5,15.7z"/>
			</g>
		</g>
	</g>
	<g>
		<g>
			<g>
				<path fill="#C5BC2F" d="M15.5,16c0.2,0,0.2-0.4,0-0.4C15.3,15.6,15.3,16,15.5,16L15.5,16z"/>
			</g>
		</g>
	</g>
	<g>
		<g>
			<g>
				<path fill="#C5BC2F" d="M15.6,16.2c0.2,0,0.2-0.4,0-0.4S15.3,16.2,15.6,16.2L15.6,16.2z"/>
			</g>
		</g>
	</g>
	<g>
		<g>
			<g>
				<path fill="#C5BC2F" d="M15.6,16.5c0.2,0,0.2-0.4,0-0.4C15.3,16.2,15.3,16.5,15.6,16.5L15.6,16.5z"/>
			</g>
		</g>
	</g>
	<g>
		<g>
			<g>
				<path fill="#C5BC2F" d="M15.7,16.9c0.2,0,0.2-0.4,0-0.4C15.4,16.5,15.4,16.9,15.7,16.9L15.7,16.9z"/>
			</g>
		</g>
	</g>
	<g>
		<g>
			<g>
				<path fill="#C5BC2F" d="M15.7,17.1c0.2,0,0.2-0.4,0-0.4C15.4,16.8,15.4,17.1,15.7,17.1L15.7,17.1z"/>
			</g>
		</g>
	</g>
	<g>
		<g>
			<g>
				<path fill="#C5BC2F" d="M15.7,16.7c0.2,0,0.2-0.4,0-0.4C15.4,16.3,15.4,16.7,15.7,16.7L15.7,16.7z"/>
			</g>
		</g>
	</g>
</g>
</svg>
