<?xml version="1.0" encoding="utf-8"?>
<!-- Generator: Adobe Illustrator 18.1.0, SVG Export Plug-In . SVG Version: 6.00 Build 0)  -->
<!DOCTYPE svg PUBLIC "-//W3C//DTD SVG 1.1//EN" "http://www.w3.org/Graphics/SVG/1.1/DTD/svg11.dtd">
<svg version="1.1" xmlns="http://www.w3.org/2000/svg" xmlns:xlink="http://www.w3.org/1999/xlink" x="0px" y="0px"
	 viewBox="0 0 311.8 403.2" enable-background="new 0 0 311.8 403.2" xml:space="preserve">
<g id="Layer_1">
	<g>
		<path fill="#FFFFFF" d="M304.9,278.9c0,0-1.8,117.1-56.5,75.6c-47.4-35.9-89.3-16-93-8.1c-3.6-8-45.6-27.9-93,8.1
			C7.8,395.9,6.1,278.9,6.1,278.9s-22,188.7,149.4,91.5C326.9,467.5,304.9,278.9,304.9,278.9z"/>
	</g>
</g>
<g id="Layer_4">
</g>
<g id="Layer_5">
	<g>
		<path fill="#FFFFFF" d="M295.5,221.7c0,0,0.1-6.1-7.8-7.1c1.2,2.4,1.3,3.9,1.3,4c0,9.9-3.7,17-11.9,23c-6,4.4-12.3,8.5-18.9,12.2
			c-2.5,1.4-5,2.8-7.6,4.1c-13.1,6.6-27,11.9-41.5,15.6c-2.8,0.7-5.6,1.4-8.5,2c-14.7,3.1-29.8,4.8-45.1,4.8
			c-44.5,0-87.6-13.7-121.5-38.6c-8.2-6.1-11.9-13.2-11.9-23.1c0-0.1-0.1-1.8,1.3-4c-7.9,1-7.8,7.1-7.8,7.1
			c0,10.2,3.7,17.2,12.1,23.4c34.5,25.4,79.1,40.6,127.9,40.6c14.8,0,29.3-1.4,43.2-4.1c-0.6,2.9-1,5.9-1,9
			c0,22.8,18.5,41.4,41.4,41.4c21.6,0,39.3-16.5,41.2-37.6c1.7-0.4,3.2-1.6,3.9-3.2c0,0,0.2,0.1,0.3,0.2v106.6c0,0,0.1,0.3,0.7,0.3
			s0.8-0.3,0.8-0.3s0-107,0-108.4c0-1-1.3-0.8-1.3-0.8c0-2.9-2.2-5.4-5-5.8c-1.9-10.3-7.7-19.2-15.7-25.3c6.7-3.8,13.2-8,19.3-12.5
			C291.7,238.9,295.5,231.9,295.5,221.7z M273.7,290.6c0,19.1-15.5,34.6-34.6,34.6c-19.1,0-34.6-15.5-34.6-34.6
			c0-3.7,0.6-7.2,1.6-10.5c18.2-4.2,35.4-10.6,51.2-18.8C267.1,267.4,273.7,278.2,273.7,290.6z"/>
		<path fill="#FFFFFF" d="M35.4,239.7c33.5,24.6,76.1,38.2,120.1,38.2c44,0,86.6-13.6,120.1-38.2c7.7-5.6,10.9-12,10.9-21.1
			c0-0.1-0.8-2.9-2-4.1c-3.6,0.1-8.4,1.1-14.8,3.4v-4.3v-35v-11.3V33.4V21.3v-0.5C255.9,10.7,210.7,3.4,157.1,3.4
			s-100,7.4-113.9,17.4v0.5v12.2v133.8v11.3v35v5.1c-7.5-2.9-13-4.1-17-4.2c-0.9,0.5-1.8,4.1-1.8,4.1
			C24.4,227.8,27.7,234.1,35.4,239.7z M258.4,187.1c2.7-0.8,5.2-1.5,7.4-2.4v28.8v14.2c-1.6,1.2-4,2.6-7.4,4.1V187.1z M244.1,190.4
			c4-0.7,5.8-1.1,9.3-1.9V234c-3.1,1.2-4.9,1.8-9.3,3L244.1,190.4z M230,192.6c3.2-0.4,6.3-0.9,9.2-1.4V238l0,0.3
			c-2.9,0.7-5.7,1.4-9.2,2.1V192.6z M215.8,194.2c3.1-0.3,6.2-0.6,9.2-1v48.1c-3,0.5-6,1.1-9.2,1.5V194.2z M201.6,195.4
			c3.1-0.2,6.2-0.5,9.2-0.7v48.9c-3,0.4-6.1,0.8-9.2,1.1V195.4z M187.5,196.2c3.1-0.1,6.2-0.3,9.2-0.5v49.4c-3,0.3-6.1,0.5-9.2,0.7
			V196.2z M173.3,196.7c3.1-0.1,6.2-0.2,9.2-0.3v49.8c-3,0.2-6.1,0.3-9.2,0.4V196.7z M159.1,196.9c3.1,0,6.1,0,9.2-0.1v50
			c-3,0.1-6.1,0.1-9.2,0.1V196.9z M144.9,196.8c3,0,6.1,0.1,9.2,0.1v50c-3.1,0-6.1-0.1-9.2-0.1V196.8z M130.8,196.4
			c3,0.1,6.1,0.2,9.2,0.3v49.9c-3.1-0.1-6.2-0.3-9.2-0.4V196.4z M116.6,195.7c3,0.2,6.1,0.3,9.2,0.5v49.7c-3.1-0.2-6.2-0.5-9.2-0.7
			V195.7z M102.4,194.7c3,0.3,6.1,0.5,9.2,0.7v49.2c-3.1-0.3-6.2-0.7-9.2-1.1V194.7z M88.2,193.2c3,0.4,6,0.7,9.2,1v48.6
			c-3.1-0.5-6.2-1-9.2-1.5V193.2z M74,191.2c2.9,0.5,6,0.9,9.2,1.4v47.8c-3.3-0.7-6.4-1.4-9.2-2.1V191.2z M59.9,188.5
			c2.9,0.7,5.9,1.3,9.2,1.9V237c-3.5-1-6.6-2-9.2-3V188.5z M47.2,213.6v-28.8c2.2,0.8,4.8,1.7,7.6,2.4V232c-3.5-1.6-5.9-3-7.6-4.2
			V213.6z"/>
	</g>
</g>
</svg>
